<svg id="Layer_1" data-name="Layer 1" xmlns="http://www.w3.org/2000/svg" viewBox="0 0 61 61"><defs><style>.cls-1{fill:#222;}.cls-2{fill:none;}</style></defs><title>code-icon</title><path class="cls-1" d="M52.32,15.67l-.8.8h0L48.29,19.7V3.81A3.82,3.82,0,0,0,44.48,0H6.35A3.82,3.82,0,0,0,2.54,3.81v6.35H1.27a1.27,1.27,0,1,0,0,2.54H2.54V22.88H1.27a1.27,1.27,0,0,0,0,2.54H2.54V35.58H1.27a1.27,1.27,0,0,0,0,2.54H2.54V48.29H1.27a1.27,1.27,0,1,0,0,2.54H2.54v6.35A3.82,3.82,0,0,0,6.35,61H44.48a3.82,3.82,0,0,0,3.81-3.81V34.31a1.19,1.19,0,0,0,0-.2L58.71,23.66h0l.8-.8a5.08,5.08,0,0,0,0-7.19A5.21,5.21,0,0,0,52.32,15.67Zm5.39,1.8a2.54,2.54,0,0,1,.1,3.49l-3.59-3.59A2.6,2.6,0,0,1,57.71,17.47Zm-12,39.72a1.27,1.27,0,0,1-1.27,1.27H6.35a1.27,1.27,0,0,1-1.27-1.27V50.83H6.35a1.27,1.27,0,1,0,0-2.54H5.08V38.13H6.35a1.27,1.27,0,0,0,0-2.54H5.08V25.42H6.35a1.27,1.27,0,0,0,0-2.54H5.08V12.71H6.35a1.27,1.27,0,1,0,0-2.54H5.08V3.81A1.27,1.27,0,0,1,6.35,2.54H44.48a1.27,1.27,0,0,1,1.27,1.27V22.24L30,38a1.25,1.25,0,0,0-.29.47l0,0-2.08,6.25L16.22,34.61,29.8,27.82a1.27,1.27,0,0,0-.1-2.32l-9.06-3.62L27,20.29a1.27,1.27,0,0,0,.59-2.13L20,10.54a1.27,1.27,0,0,0-1.8,1.8l6,6-8,2A1.27,1.27,0,0,0,16,22.78l10.08,4L13.41,33.18a1.27,1.27,0,0,0-.28,2.08L27.31,48a1.22,1.22,0,0,0,.25.15,1.31,1.31,0,0,0,.14.08,1.27,1.27,0,0,0,.47.09,1.25,1.25,0,0,0,.4-.07l8.09-2.7,0,0a1.25,1.25,0,0,0,.47-.29l8.6-8.6ZM31.41,41.29l2.48,2.48L30.17,45Zm4.84,1.24-3.6-3.6L47.59,24a1.26,1.26,0,0,0,.56-.56l4.28-4.28,3.6,3.6Z"/><rect class="cls-2" width="61" height="61"/></svg>