<svg xmlns="http://www.w3.org/2000/svg" xmlns:xlink="http://www.w3.org/1999/xlink" viewBox="0 0 175.65 217.87"><defs><style>.cls-1{fill:#eaeaea;}.cls-10,.cls-16,.cls-19,.cls-2,.cls-7{fill:none;}.cls-13,.cls-3{fill:#cca98f;}.cls-16,.cls-3{stroke:#11100f;}.cls-10,.cls-16,.cls-19,.cls-3,.cls-7,.cls-9{stroke-miterlimit:10;}.cls-16,.cls-19,.cls-3{stroke-width:2px;}.cls-4{isolation:isolate;}.cls-5{clip-path:url(#clip-path);}.cls-6{fill:#11100f;}.cls-19,.cls-7{stroke:#705d58;}.cls-10,.cls-19,.cls-7,.cls-9{stroke-linecap:round;}.cls-8,.cls-9{fill:#f1aeaf;}.cls-10,.cls-9{stroke:#332a28;}.cls-11{clip-path:url(#clip-path-2);}.cls-12{fill:#705d58;}.cls-12,.cls-20{opacity:0.2;}.cls-14{clip-path:url(#clip-path-3);}.cls-15{fill:#c4a7a1;opacity:0.5;mix-blend-mode:hard-light;}.cls-17{fill:#f9c5b4;}.cls-18{fill:#5e4e4a;}.cls-20{fill:#fff;}.cls-21{opacity:0.8;font-size:20.66px;font-family:Montserrat;font-weight:700;letter-spacing:1px;}</style><clipPath id="clip-path" transform="translate(0.09 30.49)"><circle class="cls-1" cx="87.9" cy="88.16" r="87.65"/></clipPath><clipPath id="clip-path-2" transform="translate(0.09 30.49)"><path class="cls-2" d="M43.28,165.51c2.37-24.66,22.25-42.8,44.62-42.8s42.25,18.15,44.62,42.8"/></clipPath><clipPath id="clip-path-3" transform="translate(0.09 30.49)"><path class="cls-3" d="M139.61,87.58a51.71,51.71,0,0,1-103.42,0C36.19,59,59.34,24.42,87.9,24.42S139.61,59,139.61,87.58Z"/></clipPath></defs><title>me</title><g class="cls-4"><g id="Design"><circle class="cls-1" cx="88" cy="118.65" r="87.65"/><g class="cls-5"><path class="cls-6" d="M147.53,72.1a59.63,59.63,0,1,0-119.26,0c0,32.93,0,93.31,59.63,93.31S147.53,105,147.53,72.1Z" transform="translate(0.09 30.49)"/><circle class="cls-3" cx="29.54" cy="123.79" r="11.45"/><path class="cls-7" d="M28.33,94a4,4,0,1,1,8,0" transform="translate(0.09 30.49)"/><circle class="cls-3" cx="146.45" cy="123.79" r="11.45"/><path class="cls-7" d="M139.51,94a4,4,0,1,1,8,0" transform="translate(0.09 30.49)"/><path class="cls-8" d="M132.38,164.12c0.73,6.91-19.18,12.69-44.47,12.69S42.7,171,43.43,164.12c0.7-6.7,20.61-12,44.47-12S131.67,157.42,132.38,164.12Z" transform="translate(0.09 30.49)"/><path class="cls-9" d="M43.28,165.51c2.37-22.56,22.25-39.16,44.62-39.16s42.25,16.6,44.62,39.16" transform="translate(0.09 30.49)"/><path class="cls-10" d="M56.41,172.75c0-22.14,14.1-40.08,31.49-40.08s31.49,17.94,31.49,40.08" transform="translate(0.09 30.49)"/><g class="cls-11"><path class="cls-12" d="M141.32,94.86c-3.36-24.78-27.13-42.7-53.45-42.7S37.77,70.08,34.4,94.86c-3.86,28.36,19.84,54.53,53.45,54.53S145.16,123.22,141.32,94.86Z" transform="translate(0.09 30.49)"/></g><path class="cls-13" d="M139.61,87.58a51.71,51.71,0,0,1-103.42,0C36.19,59,59.34,24.42,87.9,24.42S139.61,59,139.61,87.58Z" transform="translate(0.09 30.49)"/><g class="cls-14"><circle class="cls-15" cx="71.89" cy="92.3" r="61.2"/><circle class="cls-6" cx="110.72" cy="52.32" r="52.32"/><circle class="cls-6" cx="34.46" cy="68.99" r="34.46"/></g><path class="cls-16" d="M139.61,87.58a51.71,51.71,0,0,1-103.42,0C36.19,59,59.34,24.42,87.9,24.42S139.61,59,139.61,87.58Z" transform="translate(0.09 30.49)"/><ellipse class="cls-17" cx="67.96" cy="122.06" rx="6.97" ry="2.99"/><ellipse class="cls-17" cx="108.04" cy="122.06" rx="6.97" ry="2.99"/><circle class="cls-18" cx="70.77" cy="110.36" r="4.98"/><path class="cls-19" d="M81.87,88.33a6,6,0,1,0,12,0" transform="translate(0.09 30.49)"/><circle class="cls-18" cx="105.12" cy="110.36" r="4.98"/><path class="cls-20" d="M103.36,156.57a15.43,15.43,0,0,0-4.91.58,38.61,38.61,0,0,1-21.38,0,15.41,15.41,0,1,0,.08,29.62,37.56,37.56,0,0,1,21.22,0A15.42,15.42,0,1,0,103.36,156.57Z" transform="translate(0.09 30.49)"/></g><text class="cls-21" transform="translate(71.49 200.45)">&lt;/&gt;</text></g></g></svg>