<svg id="Layer_1" data-name="Layer 1" xmlns="http://www.w3.org/2000/svg" viewBox="0 0 55.92 55.92"><defs><style>.cls-1{fill:#222;}</style></defs><title>code-icon</title><path class="cls-1" d="M49.56,0H6.35A6.36,6.36,0,0,0,0,6.35V49.56a6.36,6.36,0,0,0,6.35,6.35H49.56a6.36,6.36,0,0,0,6.35-6.35V6.35A6.36,6.36,0,0,0,49.56,0Zm-47,6.35A3.82,3.82,0,0,1,6.35,2.54H49.56a3.82,3.82,0,0,1,3.81,3.81v3.81H2.54ZM53.38,49.56a3.82,3.82,0,0,1-3.81,3.81H6.35a3.82,3.82,0,0,1-3.81-3.81V12.71H53.38Z"/><path class="cls-1" d="M15.62,40.29a1.27,1.27,0,1,0,1.8-1.8l-6.73-6.73L17.42,25a1.27,1.27,0,0,0-1.8-1.8L8,30.87a1.27,1.27,0,0,0,0,1.8Z"/><path class="cls-1" d="M38.5,40.29a1.27,1.27,0,0,0,1.8,0l7.63-7.62a1.27,1.27,0,0,0,0-1.8l-7.62-7.62A1.27,1.27,0,0,0,38.5,25l6.73,6.73L38.5,38.5A1.27,1.27,0,0,0,38.5,40.29Z"/><path class="cls-1" d="M23.78,45.7a1.29,1.29,0,0,0,.36.05,1.27,1.27,0,0,0,1.22-.91L33,19.43a1.27,1.27,0,0,0-2.43-.73L22.93,44.11A1.27,1.27,0,0,0,23.78,45.7Z"/><path class="cls-1" d="M29.23,5.08H6.35a1.27,1.27,0,1,0,0,2.54H29.23a1.27,1.27,0,0,0,0-2.54Z"/></svg>