<svg id="Layer_1" data-name="Layer 1" xmlns="http://www.w3.org/2000/svg" viewBox="0 0 16 15.61"><defs><style>.cls-1{fill:#CD1A37;}</style></defs><title>github</title><path id="_Path_" data-name="&lt;Path&gt;" class="cls-1" d="M8,0A8.28,8.28,0,0,0,0,8a8,8,0,0,0,5.47,7.59A0.4,0.4,0,0,0,6,15.21c0-.19,0-0.82,0-1.49-2.23.48-2.69-.94-2.69-0.94a2.12,2.12,0,0,0-.89-1.17c-0.73-.5.06-0.49,0.06-0.49a1.68,1.68,0,0,1,1.23.82A1.7,1.7,0,0,0,6,12.61a1.71,1.71,0,0,1,.51-1.07c-1.78-.2-3.65-0.89-3.65-4a3.1,3.1,0,0,1,.82-2.15A2.88,2.88,0,0,1,3.8,3.32S4.47,3.1,6,4.14a7.59,7.59,0,0,1,4,0c1.53-1,2.2-.82,2.2-0.82a2.87,2.87,0,0,1,.08,2.12,3.09,3.09,0,0,1,.82,2.15c0,3.07-1.87,3.75-3.65,3.95A1.91,1.91,0,0,1,10,13c0,1.07,0,1.93,0,2.2a0.4,0.4,0,0,0,.55.38A8,8,0,0,0,16,8,8.28,8.28,0,0,0,8,0H8Z"/></svg>