<?xml version="1.0" encoding="utf-8"?>
<!-- Generator: Adobe Illustrator 19.2.1, SVG Export Plug-In . SVG Version: 6.00 Build 0)  -->
<svg version="1.1" id="Layer_1" xmlns="http://www.w3.org/2000/svg" xmlns:xlink="http://www.w3.org/1999/xlink" x="0px" y="0px"
	 viewBox="0 0 16 15.6" style="enable-background:new 0 0 16 15.6;" xml:space="preserve">
<style type="text/css">
	.st0{fill:#D31027;}
</style>
<title>github</title>
<path id="_Path_" class="st0" d="M8,0C3.6,0.1,0.1,3.6,0,8c0,3.4,2.2,6.5,5.5,7.6c0.2,0.1,0.4,0,0.5-0.2c0,0,0-0.1,0-0.1
	c0-0.2,0-0.8,0-1.5c-2.2,0.5-2.7-0.9-2.7-0.9c-0.1-0.5-0.5-0.9-0.9-1.2c-0.7-0.5,0.1-0.5,0.1-0.5c0.5,0.1,1,0.4,1.2,0.8
	C4.2,12.8,5.2,13,6,12.6c0-0.4,0.2-0.8,0.5-1.1c-1.8-0.2-3.7-0.9-3.7-4c0-0.8,0.3-1.6,0.8-2.2C3.5,4.7,3.5,4,3.8,3.3
	c0,0,0.7-0.2,2.2,0.8c1.3-0.4,2.7-0.4,4,0c1.5-1,2.2-0.8,2.2-0.8c0.3,0.7,0.3,1.4,0.1,2.1c0.5,0.6,0.8,1.4,0.8,2.2
	c0,3.1-1.9,3.8-3.7,4C9.8,11.9,10,12.5,10,13c0,1.1,0,1.9,0,2.2c0,0.2,0.2,0.4,0.4,0.4c0.1,0,0.1,0,0.2,0C13.8,14.5,16,11.4,16,8
	C15.9,3.6,12.4,0.1,8,0L8,0z"/>
</svg>
