<?xml version="1.0" encoding="utf-8"?>
<!-- Generator: Adobe Illustrator 19.2.1, SVG Export Plug-In . SVG Version: 6.00 Build 0)  -->
<svg version="1.1" id="Layer_1" xmlns="http://www.w3.org/2000/svg" xmlns:xlink="http://www.w3.org/1999/xlink" x="0px" y="0px"
	 viewBox="0 0 16 16" style="enable-background:new 0 0 16 16;" xml:space="preserve">
<style type="text/css">
	.st0{fill:#222222;}
</style>
<title>linked</title>
<path id="_Compound_Path_" class="st0" d="M13.3,0H2.7C1.2,0,0,1.2,0,2.7v10.6C0,14.8,1.2,16,2.7,16h10.6c1.5,0,2.7-1.2,2.7-2.7V2.7
	C16,1.2,14.8,0,13.3,0z M6,13H4V6h2V13z M6,4H4V2h2V4z M13,13h-2V9c0-0.6-0.4-1-1-1S9,8.4,9,9v4H7V6h2v1.2c0.4-0.7,1-1.1,1.8-1.2
	c1.3,0.1,2.3,1.2,2.2,2.5V13z"/>
</svg>
