<?xml version="1.0" encoding="utf-8"?>
<!-- Generator: Adobe Illustrator 20.1.0, SVG Export Plug-In . SVG Version: 6.00 Build 0)  -->
<svg version="1.1" id="Layer_1" xmlns="http://www.w3.org/2000/svg" xmlns:xlink="http://www.w3.org/1999/xlink" x="0px" y="0px"
	 viewBox="0 0 418.5 47.6" style="enable-background:new 0 0 418.5 47.6;" xml:space="preserve">
<style type="text/css">
	.st0{stroke:#000000;stroke-width:0.5;}
</style>
<g>
	<path class="st0" d="M7,13.6c0,0.5,0,0.8,0,0.9c0,0.1,0,0.4-0.1,1c-0.1,0.5-0.2,0.9-0.2,1c0,0.2-0.1,0.5-0.2,1.1
		c-0.1,0.5-0.2,0.9-0.3,1.1c0,0.2-0.2,0.6-0.3,1.1l-0.3,1.2c-1.1,3.5-1.4,6.1-0.9,7.8c0.1,0.5,0.3,0.8,0.6,0.9
		c0.3,0.1,0.6,0.1,1.1-0.2c0.9-0.4,1.6-0.9,2.2-1.6c1.4-1.8,3-4.9,4.8-9.4c0.1-0.4,0.3-1.1,0.5-2.2c0.2-1,0.4-1.8,0.6-2.2
		c0,0,0-0.1,0-0.1c0-0.1,0.1-0.1,0.2-0.2c0.1,0,0.2,0,0.3,0.2c0,0,0,0.1,0,0.2c0,0,0,0.1,0,0.1c0,0.1,0,0.2,0,0.3c0,0,0,0.1,0,0.2
		c0,0.1,0,0.2,0,0.2l-0.4,2.1l-0.7,2.6c-0.3,1.2-0.5,2-0.6,2.4c-0.2,1-0.5,2.4-0.9,4.4c-0.4,2-0.7,3.4-0.9,4.3
		c0.8-0.2,1.7-0.4,2.9-0.7c3-0.7,5.1-1.3,6.2-1.6c4.7-1.4,8.4-3.3,11.1-5.9c0.1-0.1,0.4-0.4,0.7-0.7c0.4-0.3,0.6-0.5,0.7-0.7
		c0.1-0.1,0.3-0.4,0.5-0.6c0.2-0.3,0.4-0.6,0.5-0.9c0.1-0.2,0.2-0.3,0.4-0.2c0.2,0.1,0.3,0.3,0.2,0.5c-0.1,0.4-0.3,0.7-0.5,1
		c-0.2,0.3-0.4,0.6-0.6,0.7c-0.1,0.2-0.4,0.4-0.8,0.8c-0.4,0.4-0.6,0.6-0.7,0.6c-2.8,2.6-6.6,4.7-11.5,6.1c-0.5,0.1-2.6,0.7-6.2,1.5
		c-1.3,0.3-2.4,0.6-3.2,0.8c-0.7,2.8-1.6,5.1-2.7,6.9c-0.8,1.2-1.6,2.1-2.4,2.8c-0.8,0.6-1.9,0.9-3.3,0.8c-1.6-0.1-2.6-0.7-2.8-1.9
		c-0.4-2.1,0.5-4,2.6-5.6c1.4-1.1,3.2-2.1,5.4-2.8c0.8-0.2,1.7-0.5,2.6-0.7c0.2-1,0.5-2.5,0.9-4.5c0.4-2.1,0.7-3.6,0.9-4.6
		c-1.2,2.8-2.4,4.9-3.6,6.5c-0.6,0.8-1.4,1.4-2.5,1.8c-0.6,0.2-1.2,0.3-1.6,0.2C4.5,30,4.2,29.6,4,28.8c-0.4-1.9-0.1-4.6,0.9-8.2
		l0.4-1.2c0.2-0.6,0.3-0.9,0.3-1.1l0.3-1.1c0.2-0.5,0.2-0.9,0.2-1c0-0.1,0-0.5,0.1-1c0.1-0.5,0.1-0.8,0.1-0.9c0-0.1-0.1-0.3,0-0.8
		c0-0.2,0.1-0.4,0.3-0.4C6.9,13.2,7,13.3,7,13.6z M10.7,31.8C10,32,9.2,32.2,8.5,32.4c-2.1,0.7-3.8,1.6-5.2,2.6
		C1.5,36.6,0.7,38.2,1,40c0.1,0.8,0.8,1.2,2.1,1.2c1.2,0,2.2-0.2,2.9-0.7C6.8,40,7.6,39.1,8.3,38C9.3,36.4,10.1,34.3,10.7,31.8z"/>
	<path class="st0" d="M45.6,11.1C45.7,11,45.9,11,46,11c0.3,0.1,0.4,0.2,0.5,0.5c0.1,0.2,0.1,0.4,0,0.7c-0.1,0.4-0.2,1-0.5,1.7
		c-0.4,1.2-0.9,2.2-1.3,3.1c-0.7,1.3-1.5,2.6-2.4,4c-0.2,0.9-0.3,1.7-0.3,2.4c-0.1,0.8-0.1,1.5-0.1,2.1s0.1,1,0.2,1.2
		c0.9,1.7,2.6,2.4,5.2,2.2c2.3-0.2,5.2-1.1,8.5-2.8c2.9-1.4,5.7-3.2,8.3-5.1c2.5-1.9,4.1-3.5,4.9-4.7c0.1-0.2,0.3-0.2,0.5-0.1
		c0.2,0.1,0.2,0.3,0.1,0.5c-0.8,1.3-2.5,2.9-5.1,4.9c-2.8,2.1-5.6,3.8-8.5,5.2c-3.4,1.7-6.3,2.6-8.7,2.8c-2.9,0.2-4.9-0.6-5.9-2.6
		c-0.2-0.3-0.3-0.8-0.3-1.5c0-0.6,0-1.3,0.1-2.2l0.1-1c-0.7,1.1-1.4,2.1-2,3c-1.4,1.9-2.7,3.3-3.7,4.1c-1.4,1.1-2.5,1.4-3.4,0.8
		c-0.2-0.2-0.4-0.5-0.4-0.8c-0.1-0.2-0.1-0.6,0-1c0-0.3,0-0.6,0.1-1c0-0.1,0-0.2,0-0.3c0-0.2,0-0.3,0-0.3c0.4-2.6,1.3-5.3,2.7-7.9
		c1.4-2.6,3.1-5,5-7.1c1.1-1.2,2.3-2,3.4-2.4c0.8-0.2,1.4-0.2,1.8,0.2C45.2,10.1,45.4,10.5,45.6,11.1z M41.7,20.8
		c0.2-0.8,0.4-1.8,0.6-2.8c0.5-2,1-3.7,1.6-4.9c0.3-0.7,0.6-1.2,0.9-1.5l0-0.1c-0.1-0.5-0.2-0.9-0.4-1.1c-0.3-0.2-0.7-0.2-1.2-0.1
		c-1,0.3-2,1.1-3.1,2.2c-1.9,2-3.5,4.3-4.9,6.9c-1.4,2.6-2.3,5.1-2.6,7.7c0,0.1,0,0.2,0,0.3c0,0.1,0,0.3,0,0.4
		c-0.1,0.3-0.1,0.6-0.1,0.8c0,0.3,0,0.6,0,0.7c0,0.2,0.1,0.3,0.2,0.4c0.6,0.4,1.5,0.2,2.6-0.7c1-0.8,2.2-2.2,3.6-4
		C39.8,23.8,40.7,22.4,41.7,20.8z M45.1,12.5c-0.2,0.2-0.3,0.6-0.5,1c-0.6,1.2-1.1,2.8-1.6,4.8l-0.2,0.8l1.4-2.4
		c0.5-0.8,0.9-1.7,1.3-2.9c0.3-0.7,0.4-1.2,0.4-1.6c0-0.2,0-0.3,0-0.4c-0.1,0-0.1,0-0.2,0.1v0.3c0,0.2-0.1,0.4-0.3,0.4
		C45.3,12.6,45.2,12.6,45.1,12.5z"/>
	<path class="st0" d="M68.4,12c1.2,1.6,1.7,4.2,1.4,7.8c-0.1,0.7-0.1,1.4-0.2,2.2c0.8-1.8,1.5-3.3,2.3-4.7c0.8-1.4,1.5-2.6,2.2-3.3
		c0.9-1,1.6-1.5,2.3-1.4c0.4,0.1,0.7,0.3,0.9,0.8c0.2,0.4,0.3,0.8,0.4,1.5c0.1,0.8,0.1,2.1,0,4.1c-0.1,2.2-0.1,3.6,0,4.3
		c0,1.4,0.2,2.4,0.6,2.9c2.4,3.1,6,3.3,10.7,0.4c2.8-1.7,6.1-4.6,9.9-8.7c0.2-0.2,0.3-0.2,0.5,0c0.2,0.2,0.2,0.4,0,0.5
		c-3.3,3.4-7.1,7-10.1,8.8c-5.1,3.1-8.9,2.9-11.6-0.6c-0.5-0.6-0.7-1.7-0.8-3.3c0-0.8,0-2.3,0-4.5c0.1-1.9,0-3.3,0-4
		c-0.1-0.5-0.2-0.9-0.3-1.2c-0.1-0.2-0.3-0.4-0.4-0.4c-0.4-0.1-1,0.3-1.7,1.1c-0.6,0.8-1.3,1.9-2.1,3.2c-1.1,1.9-2,4-2.9,6.2
		c-0.2,0.5-0.4,1-0.5,1.6l-0.5,2.2c0,0,0,0.2-0.1,0.5c-0.1,0.4-0.1,0.7-0.1,1c-0.1,0.4-0.1,0.7-0.2,1c0,0.2-0.1,0.3-0.1,0.4
		c-0.1,0.2-0.2,0.3-0.3,0.3c-0.2,0-0.3,0-0.4-0.2c0,0,0-0.1,0-0.2v-0.2c0-0.1,0-0.2,0-0.3c0-0.3,0.1-0.8,0.3-1.5
		c0.4-1.8,0.7-2.9,0.8-3.3c0.5-2,0.7-3.9,0.8-5.6c0.2-3.4-0.2-5.8-1.3-7.3c-0.1-0.2-0.1-0.3,0.1-0.5C68,11.8,68.2,11.8,68.4,12z"/>
	<path class="st0" d="M99.2,19.7c-0.4,1.3-0.7,2.5-0.8,3.6c-0.4,2.3-0.2,3.9,0.4,4.8c0.3,0.5,0.8,0.9,1.5,1.1s1.2,0.4,1.7,0.5
		c0.5,0.1,1.2,0.1,2,0.2c4.1,0.2,8.4-0.8,13-3.1c4.6-2.3,8.5-5.1,11.6-8.5c0.2-0.2,0.3-0.2,0.5,0c0.2,0.2,0.2,0.4,0,0.5
		c-3.2,3.5-7.2,6.3-11.9,8.6c-4.7,2.3-9.1,3.3-13.3,3.1c-0.9,0-1.6-0.1-2.1-0.2c-0.5-0.1-1.1-0.3-1.9-0.6c-0.8-0.3-1.3-0.8-1.8-1.4
		c-0.7-1-0.9-2.8-0.5-5.4c0.4-2.3,1.1-4.7,2.2-7.3c1.1-2.6,2.3-4.7,3.6-6.2c1.6-1.8,3-2.4,4.3-1.9c0.5,0.2,0.9,0.6,1,1.1
		c0.2,0.5,0.2,1,0,1.6c-0.3,1.2-0.9,2.5-1.9,3.9c-1.1,1.4-2.3,2.6-3.6,3.6C101.9,19,100.5,19.6,99.2,19.7z M99.4,18.9
		c1.2-0.1,2.4-0.7,3.6-1.6c1.2-0.9,2.3-2,3.3-3.3c1-1.3,1.6-2.6,1.8-3.7c0.1-0.5,0.1-0.9,0-1.2c-0.1-0.3-0.3-0.5-0.6-0.6
		c-1-0.4-2.2,0.2-3.6,1.7c-1.2,1.4-2.4,3.4-3.5,6C100.1,17.1,99.7,18,99.4,18.9z"/>
	<path class="st0" d="M128.9,19l-0.2,0.1c-0.2,0.1-0.3,0.2-0.4,0c-0.1-0.2,0.1-0.6,0.3-0.8c0.1-0.1,0.3-0.2,0.6-0.3
		c0.9-3.4,2.2-6.8,3.9-10.2c0.6-1.2,1.5-2.6,2.8-4.3c0.7-1,1.4-1.8,1.9-2.3c0.3-0.3,0.6-0.5,0.8-0.7c0.4-0.2,0.7-0.2,0.9-0.2
		c0.5,0.2,0.7,0.6,0.8,1.1c0,0.4,0,1-0.2,1.6c-0.4,1.1-1,2.4-2,4.1c-0.9,1.4-2.3,3.6-4.4,6.5c-0.1,0.2-0.5,0.7-1,1.4l-1.1,1.6
		c-0.6,0.8-1.2,1.4-1.8,1.8c-0.3,1.1-0.5,2-0.6,3c-0.4,2.7-0.2,4.8,0.5,6.3c0.9,1.7,2.5,2.5,5,2.5c2.6,0,4.6-0.2,5.8-0.6
		c2-0.6,4.6-1.9,7.8-3.8c4.5-2.6,7.5-5.1,9.1-7.3c0.2-0.2,0.3-0.2,0.5-0.1c0.2,0.2,0.2,0.3,0.1,0.5c-1.7,2.3-4.8,4.8-9.4,7.5
		c-3.3,1.9-5.9,3.2-7.9,3.9c-1.3,0.4-3.3,0.6-6,0.6c-2.7,0-4.6-1-5.6-3c-0.8-1.6-1-3.8-0.6-6.7C128.6,20.6,128.7,19.8,128.9,19z
		 M130.1,17.3c0.3-0.3,0.6-0.7,0.9-1.1c0.3-0.4,0.7-0.9,1.1-1.6c0.5-0.8,0.9-1.3,1-1.4c2.1-2.9,3.5-5.1,4.4-6.5c1-1.6,1.6-2.9,2-4
		c0.2-0.5,0.2-1,0.2-1.3c0-0.2-0.1-0.4-0.3-0.5c-0.1,0-0.2,0-0.3,0.1c-0.2,0.1-0.4,0.3-0.7,0.6c-0.5,0.5-1.1,1.3-1.8,2.2
		c-1.2,1.7-2.1,3.1-2.7,4.2C132.2,11.1,131,14.2,130.1,17.3z"/>
	<path class="st0" d="M158.9,13.5c0,0.5,0,0.8,0,0.9c0,0.1,0,0.4-0.1,1c-0.1,0.5-0.2,0.9-0.2,1c0,0.2-0.1,0.5-0.2,1.1
		c-0.1,0.5-0.2,0.9-0.3,1.1c0,0.2-0.2,0.6-0.3,1.1l-0.3,1.2c-1.1,3.5-1.4,6.1-0.9,7.8c0.1,0.5,0.3,0.8,0.6,0.9
		c0.3,0.1,0.6,0.1,1.1-0.2c0.9-0.4,1.6-0.9,2.2-1.6c1.4-1.8,3-4.9,4.8-9.4c0.1-0.4,0.3-1.1,0.5-2.2c0.2-1,0.4-1.8,0.6-2.2
		c0,0,0-0.1,0-0.1c0-0.1,0.1-0.1,0.2-0.2c0.1,0,0.2,0,0.3,0.2c0,0,0,0.1,0,0.2c0,0,0,0.1,0,0.1c0,0.1,0,0.2,0,0.3c0,0,0,0.1,0,0.2
		c0,0.1,0,0.2,0,0.2l-0.4,2.1l-0.7,2.6c-0.3,1.2-0.5,2-0.6,2.4c-0.2,1-0.5,2.4-0.9,4.4c-0.4,2-0.7,3.4-0.9,4.3
		c0.8-0.2,1.7-0.4,2.9-0.7c3-0.7,5.1-1.3,6.2-1.6c4.7-1.4,8.4-3.3,11.1-5.9c0.1-0.1,0.4-0.4,0.7-0.7c0.4-0.3,0.6-0.5,0.7-0.7
		c0.1-0.1,0.3-0.4,0.5-0.6c0.2-0.3,0.4-0.6,0.5-0.9c0.1-0.2,0.2-0.3,0.4-0.2c0.2,0.1,0.3,0.3,0.2,0.5c-0.1,0.4-0.3,0.7-0.5,1
		c-0.2,0.3-0.4,0.6-0.6,0.7c-0.1,0.2-0.4,0.4-0.8,0.8c-0.4,0.4-0.6,0.6-0.7,0.6c-2.8,2.6-6.6,4.7-11.5,6.1c-0.5,0.1-2.6,0.7-6.2,1.5
		c-1.3,0.3-2.4,0.6-3.2,0.8c-0.7,2.8-1.6,5.1-2.7,6.9c-0.8,1.2-1.6,2.1-2.4,2.8c-0.8,0.6-1.9,0.9-3.3,0.8c-1.6-0.1-2.6-0.7-2.8-1.9
		c-0.4-2.1,0.5-4,2.6-5.6c1.4-1.1,3.2-2.1,5.4-2.8c0.8-0.2,1.7-0.5,2.6-0.7c0.2-1,0.5-2.5,0.9-4.5c0.4-2.1,0.7-3.6,0.9-4.6
		c-1.2,2.8-2.4,4.9-3.6,6.5c-0.6,0.8-1.4,1.4-2.5,1.8c-0.6,0.2-1.2,0.3-1.6,0.2c-0.5-0.2-0.9-0.6-1.1-1.4c-0.4-1.9-0.1-4.6,0.9-8.2
		l0.4-1.2c0.2-0.6,0.3-0.9,0.3-1.1l0.3-1.1c0.2-0.5,0.2-0.9,0.2-1c0-0.1,0-0.5,0.1-1c0.1-0.5,0.1-0.8,0.1-0.9c0-0.1-0.1-0.3,0-0.8
		c0-0.2,0.1-0.4,0.3-0.4C158.8,13.2,158.9,13.3,158.9,13.5z M162.6,31.7c-0.8,0.2-1.5,0.4-2.2,0.7c-2.1,0.7-3.8,1.6-5.2,2.6
		c-1.8,1.5-2.6,3.1-2.3,4.9c0.1,0.8,0.8,1.2,2.1,1.2c1.2,0,2.2-0.2,2.9-0.7c0.8-0.6,1.5-1.4,2.2-2.5C161.1,36.3,162,34.2,162.6,31.7
		z"/>
	<path class="st0" d="M206.4,12.1c0.2,1.6,0,3.7-0.5,6.1c0.4-0.7,0.8-1.2,1.2-1.4c0.2-0.1,0.4-0.1,0.7-0.1c0.3,0.1,0.6,0.2,0.9,0.3
		c0.6,0.2,1.4,0.6,2.5,1.2c2.7,1.4,4.1,2.1,4.3,2.1c6.9,2.3,13,1.3,18.2-2.9c0.2-0.1,0.3-0.1,0.5,0.1c0.1,0.2,0.1,0.4-0.1,0.6
		c-5.4,4.3-11.7,5.4-18.8,3c-0.2-0.1-1.7-0.8-4.4-2.2c-1.1-0.5-1.8-0.9-2.4-1.1c-0.4-0.1-0.7-0.2-0.9-0.3l-0.3-0.1
		c-0.4,0.2-0.9,0.9-1.3,2c-0.4,1-0.8,2.3-1.1,3.9c-0.2,0.7-0.4,1.5-0.5,2.3l-0.1,0.8c0,0.3-0.1,0.7-0.1,1c0,0.4-0.1,0.6-0.1,0.8
		l-0.1,0.7c0,0.2,0,0.4,0,0.7c0,0.1,0,0.2,0,0.4c0,0.1,0,0.1,0,0.2c0,0,0,0.1,0,0.1c0,0.1-0.1,0.1-0.1,0.2c-0.1,0-0.1,0.1-0.2,0.1
		c-0.1,0-0.2,0-0.2-0.1l-0.1-0.2v-0.1v-0.1c0-1,0.2-2.6,0.6-4.7c0.1-0.4,0.1-0.7,0.1-1c0.1-0.8,0.4-2.1,0.8-3.9
		c0.4-1.7,0.7-3.3,0.9-4.6c0.2-1.3,0.2-2.6,0.1-3.8c0-0.2,0.1-0.4,0.3-0.4C206.3,11.7,206.4,11.8,206.4,12.1z"/>
	<path class="st0" d="M243.7,11.1c0.2-0.1,0.3-0.1,0.4-0.1c0.3,0.1,0.4,0.2,0.5,0.5c0.1,0.2,0.1,0.4,0,0.7c-0.1,0.4-0.2,1-0.5,1.7
		c-0.4,1.2-0.9,2.2-1.3,3.1c-0.7,1.3-1.5,2.6-2.4,4c-0.2,0.9-0.3,1.7-0.3,2.4c-0.1,0.8-0.1,1.5-0.1,2.1s0.1,1,0.2,1.2
		c0.9,1.7,2.6,2.4,5.2,2.2c2.3-0.2,5.2-1.1,8.5-2.8c2.9-1.4,5.7-3.2,8.3-5.1c2.5-1.9,4.1-3.5,4.9-4.7c0.1-0.2,0.3-0.2,0.5-0.1
		c0.2,0.1,0.2,0.3,0.1,0.5c-0.8,1.3-2.5,2.9-5.1,4.9c-2.8,2.1-5.6,3.8-8.5,5.2c-3.4,1.7-6.3,2.6-8.7,2.8c-2.9,0.2-4.9-0.6-5.9-2.6
		c-0.2-0.3-0.3-0.8-0.3-1.5c0-0.6,0-1.3,0.1-2.2l0.1-1c-0.7,1.1-1.4,2.1-2,3c-1.4,1.9-2.7,3.3-3.7,4.1c-1.4,1.1-2.5,1.4-3.4,0.8
		c-0.2-0.2-0.4-0.5-0.4-0.8c-0.1-0.2-0.1-0.6,0-1c0-0.3,0-0.6,0.1-1c0-0.1,0-0.2,0-0.3c0-0.2,0-0.3,0-0.3c0.4-2.6,1.3-5.3,2.7-7.9
		c1.4-2.6,3.1-5,5-7.1c1.1-1.2,2.3-2,3.4-2.4c0.8-0.2,1.4-0.2,1.8,0.2C243.3,10.1,243.6,10.5,243.7,11.1z M239.9,20.8
		c0.2-0.8,0.4-1.8,0.6-2.8c0.5-2,1-3.7,1.6-4.9c0.3-0.7,0.6-1.2,0.9-1.5l0-0.1c-0.1-0.5-0.2-0.9-0.4-1.1c-0.3-0.2-0.7-0.2-1.2-0.1
		c-1,0.3-2,1.1-3.1,2.2c-1.9,2-3.5,4.3-4.9,6.9c-1.4,2.6-2.3,5.1-2.6,7.7c0,0.1,0,0.2,0,0.3c0,0.1,0,0.3,0,0.4
		c-0.1,0.3-0.1,0.6-0.1,0.8c0,0.3,0,0.6,0,0.7c0,0.2,0.1,0.3,0.2,0.4c0.6,0.4,1.5,0.2,2.6-0.7c1-0.8,2.2-2.2,3.6-4
		C237.9,23.8,238.9,22.4,239.9,20.8z M243.3,12.5c-0.2,0.2-0.3,0.6-0.5,1c-0.6,1.2-1.1,2.8-1.6,4.8l-0.2,0.8l1.4-2.4
		c0.5-0.8,0.9-1.7,1.3-2.9c0.3-0.7,0.4-1.2,0.4-1.6c0-0.2,0-0.3,0-0.4c-0.1,0-0.1,0-0.2,0.1v0.3c0,0.2-0.1,0.4-0.3,0.4
		C243.4,12.6,243.3,12.5,243.3,12.5z"/>
	<path class="st0" d="M268.3,9.3c0,0.6,0,1.1,0,1.7c0,0.6,0,1.2,0,1.9c0,0.6-0.1,1.2-0.1,1.7c0,0.5-0.1,1.1-0.2,1.8
		c-0.1,0.7-0.2,1.3-0.2,1.7l-0.3,1.8c-0.1,0.8-0.2,1.4-0.2,1.7c0.2-0.7,0.5-1.3,0.7-2c1-2.4,1.9-4.2,2.9-5.5
		c1.2-1.7,2.4-2.3,3.4-1.9c0.4,0.1,0.6,0.4,0.8,0.9c0.2,0.4,0.3,0.8,0.3,1.4c0.1,1,0.1,2.2,0,3.8c-0.2,1.8-0.4,3.7-0.8,5.7
		c0.7-1.5,1.4-2.9,2.1-4.1c1.2-2.2,2.4-3.7,3.4-4.7c1.3-1.3,2.5-1.5,3.4-0.6c0.2,0.2,0.3,0.5,0.4,1c0.1,0.4,0.2,0.8,0.2,1.4
		c0,0.7,0,1.9-0.1,3.7c-0.1,1.9-0.1,3.1-0.1,3.8c0,1.2,0.1,2.1,0.3,2.6c0.3,0.6,0.7,1.1,1.2,1.4c0.5,0.3,1.2,0.4,2.1,0.5
		c1.3,0.1,2.6,0,3.8-0.4c1.3-0.4,2.5-0.9,3.8-1.8c1.2-0.8,2.3-1.6,3.2-2.4c0.9-0.7,1.9-1.7,3.2-2.9c0.2-0.2,0.4-0.2,0.5,0
		c0.1,0.2,0.1,0.4,0,0.5c-1.2,1.2-2.3,2.2-3.2,2.9c-0.9,0.7-2,1.5-3.3,2.4c-1.3,0.9-2.6,1.5-4,1.9c-1.3,0.4-2.7,0.5-4.1,0.4
		c-0.9-0.1-1.7-0.3-2.3-0.6c-0.6-0.3-1.1-0.9-1.4-1.7c-0.2-0.6-0.4-1.6-0.4-2.9c0-0.7,0-1.9,0.1-3.8c0.1-1.8,0.1-2.9,0.1-3.6
		c0-0.5-0.1-0.9-0.1-1.2c-0.1-0.3-0.2-0.5-0.3-0.6c-0.6-0.6-1.4-0.4-2.5,0.6c-1,0.9-2,2.4-3.3,4.5c-1.5,2.6-2.7,5.2-3.7,7.9
		l-0.1,0.3c-0.1,0.1-0.1,0.3-0.1,0.4c0,0.1-0.1,0.1-0.1,0.2v0.1l-0.1,0.1c-0.1,0.1-0.2,0.1-0.3,0.1c-0.1,0-0.2-0.1-0.2-0.3V29v-0.1
		v-0.1l0.3-0.9c0.3-0.9,0.5-2,0.8-3.3c0.5-1.9,0.8-4,1-6.3c0.1-1.5,0.1-2.7,0-3.7c-0.1-0.5-0.2-0.9-0.3-1.2
		c-0.1-0.3-0.2-0.4-0.3-0.5c-0.8-0.3-1.6,0.2-2.7,1.5c-0.9,1.3-1.9,3.1-2.8,5.4c-0.9,2.1-1.5,4.2-2,6.2c-0.2,1.5-0.4,2.7-0.4,3.6
		v0.2v0.2c0,0.1,0,0.1,0,0.2c0,0.1,0,0.1,0,0.1c0,0-0.1,0.1-0.1,0.1c-0.1,0.1-0.2,0.1-0.3,0.1l-0.1-0.2c0,0,0,0,0-0.1
		c-0.1-0.4,0-1,0-1.7c0.1-0.7,0.2-1.6,0.4-2.5c0.2-1.2,0.3-2.1,0.4-2.6c0.1-0.8,0.3-2,0.5-3.5c0.2-1.6,0.4-2.7,0.5-3.5
		c0.1-0.8,0.2-1.9,0.3-3.5c0.1-1.6,0.1-2.8,0-3.6c0-0.2,0.1-0.3,0.3-0.3C268.1,8.9,268.3,9,268.3,9.3z"/>
	<path class="st0" d="M303.9,13.4c0,0.6-0.1,1.3-0.3,2.1c-0.2,0.8-0.4,1.8-0.7,2.9c-0.3,1.1-0.5,2-0.6,2.6c-0.8,3.4-0.8,5.8-0.1,7.3
		c0.8,1.6,2.4,2.3,5.1,2.1c2.3-0.2,5.2-1,8.7-2.5c2.9-1.3,5.8-2.9,8.7-4.8c2.7-1.8,4.4-3.2,5.2-4.2c0.1-0.2,0.3-0.2,0.5-0.1
		c0.2,0.2,0.2,0.3,0,0.5c-0.9,1.2-2.6,2.6-5.4,4.4c-2.8,1.9-5.8,3.5-8.8,4.8c-3.5,1.5-6.4,2.4-8.9,2.5c-3,0.2-4.9-0.6-5.7-2.5
		c-0.8-1.6-0.7-4.2,0-7.7c0.1-0.6,0.3-1.5,0.6-2.6c0.3-1.1,0.5-2.1,0.7-2.9s0.3-1.5,0.3-2.1c0-0.2,0.2-0.4,0.4-0.3
		C303.8,13,303.9,13.1,303.9,13.4z M304.8,7.2c0.2,0,0.3,0.1,0.3,0.4c0,0.2-0.1,0.4-0.3,0.4c-0.2,0-0.3-0.1-0.3-0.4
		C304.5,7.3,304.6,7.2,304.8,7.2z"/>
	<g>
		<path class="st0" d="M330.7,12.2c0.2,1.6,0,3.7-0.5,6.1c0.4-0.7,0.8-1.2,1.2-1.4c0.2-0.1,0.4-0.1,0.7-0.1c0.3,0.1,0.6,0.2,0.9,0.3
			c0.6,0.2,1.4,0.6,2.5,1.2c2.7,1.4,4.1,2.1,4.3,2.1c6.9,2.3,13,1.3,18.2-2.9c0.2-0.1,0.3-0.1,0.5,0.1c0.1,0.2,0.1,0.4-0.1,0.6
			c-5.4,4.3-11.7,5.4-18.8,3c-0.2-0.1-1.7-0.8-4.4-2.2c-1.1-0.5-1.8-0.9-2.4-1.1c-0.4-0.1-0.7-0.2-0.9-0.3l-0.3-0.1
			c-0.4,0.2-0.9,0.9-1.3,2c-0.4,1-0.8,2.3-1.1,3.9c-0.2,0.7-0.4,1.5-0.5,2.3l-0.1,0.8c0,0.3-0.1,0.7-0.1,1c0,0.4-0.1,0.6-0.1,0.8
			l-0.1,0.7c0,0.2,0,0.4,0,0.7c0,0.1,0,0.2,0,0.4c0,0.1,0,0.1,0,0.2c0,0,0,0.1,0,0.1c0,0.1-0.1,0.1-0.1,0.2c-0.1,0-0.1,0.1-0.2,0.1
			c-0.1,0-0.2,0-0.2-0.1l-0.1-0.2v-0.1v-0.1c0-1,0.2-2.6,0.6-4.7c0.1-0.4,0.1-0.7,0.1-1c0.1-0.8,0.4-2.1,0.8-3.9
			c0.4-1.7,0.7-3.3,0.9-4.6c0.2-1.3,0.2-2.6,0.1-3.8c0-0.2,0.1-0.4,0.3-0.4C330.6,11.8,330.7,11.9,330.7,12.2z"/>
		<path class="st0" d="M357.9,20.4c-0.4,1.3-0.7,2.5-0.8,3.6c-0.4,2.3-0.2,3.9,0.4,4.8c0.3,0.5,0.8,0.9,1.5,1.1
			c0.6,0.3,1.2,0.4,1.7,0.5c0.5,0.1,1.2,0.1,2,0.2c4.1,0.2,8.4-0.8,13-3.1c4.6-2.3,8.5-5.1,11.6-8.5c0.2-0.2,0.3-0.2,0.5,0
			c0.2,0.2,0.2,0.4,0,0.5c-3.2,3.5-7.2,6.3-11.9,8.6c-4.7,2.3-9.1,3.3-13.3,3.1c-0.9,0-1.6-0.1-2.1-0.2c-0.5-0.1-1.1-0.3-1.9-0.6
			c-0.8-0.3-1.3-0.8-1.8-1.4c-0.7-1-0.9-2.8-0.5-5.4c0.4-2.3,1.1-4.7,2.2-7.3c1.1-2.6,2.3-4.7,3.6-6.2c1.6-1.8,3-2.4,4.3-1.9
			c0.5,0.2,0.9,0.6,1,1.1c0.2,0.5,0.2,1,0,1.6c-0.3,1.2-0.9,2.5-1.9,3.9c-1.1,1.4-2.3,2.6-3.6,3.6S359.3,20.3,357.9,20.4z
			 M358.2,19.7c1.2-0.1,2.4-0.7,3.6-1.6c1.2-0.9,2.3-2,3.3-3.3c1-1.3,1.6-2.6,1.8-3.7c0.1-0.5,0.1-0.9,0-1.2
			c-0.1-0.3-0.3-0.5-0.6-0.6c-1-0.4-2.2,0.2-3.6,1.7c-1.2,1.4-2.4,3.4-3.5,6C358.8,17.8,358.5,18.7,358.2,19.7z"/>
		<path class="st0" d="M387.1,19.3c1.3-1.7,3.8-1.8,4.5-2c2-0.2,3.2,0.2,3.7,1.6c0.5,1.2,0.4,2.5-0.3,3.9c-0.2,0.4-0.5,0.8-0.8,1.3
			c0.4-0.1,0.8-0.1,1.1,0.1c0.7,0.2,1.2,0.9,1.5,2c0.2,0.7,0.4,1.4,0.4,2.3c0.1,1.8,0,3.7-0.4,5.5c0.7-0.1,2-0.2,3.9-0.3
			c1.9-0.2,3.3-0.3,4.4-0.4c2.8-0.4,5.3-0.9,7.4-1.7c2.1-0.8,3.8-2.1,5.2-3.8c0.1-0.2,0.3-0.2,0.5,0s0.2,0.3,0,0.6
			c-1.4,1.8-3.3,3.1-5.4,3.9c-2.2,0.9-4.7,1.5-7.6,1.8c-1.1,0.1-2.5,0.2-4.5,0.4c-1.9,0.2-3.2,0.3-4,0.3c-1.1,4.6-3.2,8.2-6.4,10.9
			c-0.6,0.5-1.4,0.9-2.6,1.3c-1.1,0.3-2.2,0.5-3.2,0.4c-1.2,0-2.1-0.4-2.6-1c-0.7-0.8-0.9-1.9-0.5-3.3c0.9-3.6,4.1-6.2,9.6-8
			c1.3-0.4,3-0.8,5.1-1c0.4-1.8,0.5-3.7,0.4-5.6c0-0.8-0.1-1.5-0.3-2.1c-0.3-0.8-0.6-1.3-1.1-1.4c-0.6-0.2-1.2-0.1-1.9,0.4l-0.4,0.5
			c0,0-0.1,0.1-0.1,0.2c-0.1,0.2-0.2,0.3-0.2,0.3c-0.1,0.1-0.2,0.2-0.3,0.3c-0.2,0.1-0.4,0.1-0.6-0.1c-0.1-0.1-0.1-0.2-0.1-0.3
			c0,0,0-0.1,0-0.1v-0.1c0,0,0.1-0.1,0.1-0.1l0.2-0.3c0.3-0.3,0.5-0.5,0.8-0.8l0.1-0.1c0.7-0.8,1.2-1.6,1.6-2.3
			c0.6-1.2,0.7-2.3,0.3-3.2c-0.4-1.1-1.4-1.4-3-1.2c-0.7,0.1-2.8,0.3-4.3,2c-0.2,0.1-0.4,0-0.5-0.2
			C386.8,19.6,386.8,19.7,387.1,19.3z M396.1,34.6c-1.9,0.2-3.5,0.5-4.7,1c-5.2,1.7-8.2,4.2-9.1,7.5c-0.3,1.1-0.2,2,0.3,2.5
			c0.5,0.5,1.2,0.8,2.2,0.8c0.9,0,1.9-0.1,2.9-0.4c1-0.3,1.8-0.7,2.4-1.2C393,42.3,395.1,39,396.1,34.6z"/>
	</g>
</g>
</svg>
