<?xml version="1.0" encoding="utf-8"?>
<!-- Generator: Adobe Illustrator 19.2.1, SVG Export Plug-In . SVG Version: 6.00 Build 0)  -->
<svg version="1.1" id="Layer_1" xmlns="http://www.w3.org/2000/svg" xmlns:xlink="http://www.w3.org/1999/xlink" x="0px" y="0px"
	 viewBox="0 0 16 16" style="enable-background:new 0 0 16 16;" xml:space="preserve">
<style type="text/css">
	.st0{fill:#D31027;}
</style>
<title>twitter</title>
<path id="_Compound_Path_" class="st0" d="M16,2c0-1.1-0.9-2-2-2H2C0.9,0,0,0.9,0,2v12c0,1.1,0.9,2,2,2h12c1.1,0,2-0.9,2-2V2z
	 M12.9,5.7c0,0.1,0,0.2,0,0.3c0,3.9-3.2,7.1-7.1,7.2c-1.4,0-2.7-0.4-3.9-1.2c0.2,0,0.4,0,0.6,0c1.1,0,2.3-0.3,3.2-1
	c-1.1,0-2-0.7-2.3-1.7c0.2,0,0.4,0,0.5,0c0.3,0,0.5,0,0.8-0.1C3.6,8.9,2.9,7.9,3,6.8l0,0C3.2,7,3.5,7.1,3.8,7C3.1,6.6,2.5,5.8,2.4,5
	c0-0.4,0.1-0.9,0.3-1.3C4,5.3,5.9,6.2,7.9,6.3C7.6,5,8.4,3.6,9.8,3.3c0.9-0.2,1.8,0.1,2.4,0.7c0.6-0.1,1.1-0.3,1.6-0.6
	c-0.2,0.6-0.6,1.1-1.1,1.4c0.5-0.1,0.9-0.2,1.4-0.4l0,0C13.7,4.9,13.3,5.3,12.9,5.7z"/>
</svg>
