<svg id="Layer_1" data-name="Layer 1" xmlns="http://www.w3.org/2000/svg" viewBox="0 0 16 16"><defs><style>.cls-1{fill:#CD1A37;}</style></defs><title>twitter</title><path id="_Compound_Path_" data-name="&lt;Compound Path&gt;" class="cls-1" d="M16,2a2,2,0,0,0-2-2H2A2,2,0,0,0,0,2V14a2,2,0,0,0,2,2H14a2,2,0,0,0,2-2V2ZM12.86,5.7c0,0.11,0,.22,0,0.32a7.12,7.12,0,0,1-11,6,5.46,5.46,0,0,0,.61,0A5.09,5.09,0,0,0,5.64,11a2.46,2.46,0,0,1-2.3-1.74,3.42,3.42,0,0,0,.55,0A3.8,3.8,0,0,0,4.7,9.21,2.26,2.26,0,0,1,3,6.75v0A0.85,0.85,0,0,0,3.83,7,2.83,2.83,0,0,1,2.4,5a2.49,2.49,0,0,1,.34-1.26A7.12,7.12,0,0,0,7.91,6.31,2.51,2.51,0,0,1,12.18,4a5,5,0,0,0,1.59-.61,2.51,2.51,0,0,1-1.1,1.39,4.66,4.66,0,0,0,1.38-.39h0A4.89,4.89,0,0,1,12.86,5.7Z"/></svg>