<svg id="Layer_1" data-name="Layer 1" xmlns="http://www.w3.org/2000/svg" viewBox="0 0 376.74 401.35"><defs><style>.cls-1{fill:#acbd92;}.cls-1,.cls-2,.cls-3,.cls-4{fill-rule:evenodd;}.cls-2{fill:#827359;}.cls-3{fill:#f6d9d0;}.cls-4{fill:#ef3d50;}</style></defs><title>branch and berry frame [Converted]</title><path class="cls-1" d="M435.78,494.35h0a5.35,5.35,0,0,0,3.1-1.42,5.18,5.18,0,0,0-3.1,1.42Zm4.75-2.8h0a.65.65,0,0,1,1.05.74c-1.28,3.07-5.49,6.83-9,4.94a.77.77,0,0,1-.32-1c1.73-2.76,4.69-5.66,8.23-4.64Z" transform="translate(-109 -220.89)"/><path class="cls-2" d="M192.62,265a1,1,0,0,0,.06.42c-6.57,4.73-12.6,9.92-16.82,17l-.2.34c-.08-4.8-1.39-11.57-3-14.53,1-1.31.62-3.34-.83-2.5-4.31,2.7-2.83,3.52-1.2,3.5a35,35,0,0,1,1.59,4.74c.82,4.25,1.2,9.22,1.81,11.85-4.66,9.78-5.46,20.83-7,31.44a116,116,0,0,1-4.67,20.06c1-9.66-2-19.57-5.75-28.56,2.23-2.09-.7-3.14-2.43-2-.91.63-3.7,1.85-.12,2.52a5.15,5.15,0,0,0,.8.15,81.68,81.68,0,0,1,4.59,13.84c1.53,6.85.91,13.47.46,20.37a66.41,66.41,0,0,1-4.81,9.12c-4.26,6.69-10.62,14.84-8.26,23.24.25.89,1.77.46,1.56-.43-2.26-9.31,6.39-17.89,10.44-25.46a93.45,93.45,0,0,0,8.28-23.43.84.84,0,0,0,.36-.31c3-4.51,5.17-9.6,8.49-13.86,2.87-3.86,7.27-7,10.24-9.07,1.16,1.54,4,1.35,3-.32-.33-.52-3.51-6.25-3.49-1.25-8.43,4.89-14.15,13.85-17.54,19.77l.21-1.08c2.32-12,2.56-24,8-35.19,3.87-7.87,10.48-13.4,17.42-18.43,1.29.75,3,.38,2.25-1,.64.49-2.52-6.08-3.49-1Z" transform="translate(-109 -220.89)"/><path class="cls-3" d="M155.3,299.88a6.31,6.31,0,0,0-2.43-2.49,1.12,1.12,0,0,0-1.69.5c-1,2.73-.15,8,2.08,10,1,.87,2.25,0,2.82-1.42a6.58,6.58,0,0,0-.78-6.54Zm15.61-40.06a1,1,0,0,0-1.47.44,6,6,0,0,0-.72,2.32,2.45,2.45,0,0,0-.23.83c-.15,1.52,1,3.07,1.88,4.18a1,1,0,0,0,1.53,0,5.39,5.39,0,0,0-1-7.73Zm28,.52a11.82,11.82,0,0,0-4,2.07c-1.34,1.29-.74,4.2,1.07,3.72,4.69-1.26,5.95-7,2.91-5.79Zm-4.27,37.37a8.11,8.11,0,0,0-1.28-.12,5.92,5.92,0,0,0-6.1,3.59,1,1,0,0,0,.54,1.23c2.86,1,5.85-.46,7.51-3.17a1,1,0,0,0-.68-1.54Z" transform="translate(-109 -220.89)"/><path class="cls-2" d="M118.51,461.55c.24,1.62-.34,1.34.23,3-.1,1,.92,1.39,1.49.45,3.56,3.38,9.6,4.56,13.53,7.21,9.76,6.58,15,17.09,19.81,27.47,4.26,9.17,8.08,18.53,12.89,27.44s11.29,17,17.65,25c.8,1,2.18-.33,1.45-1.33-6.27-8.53-12.93-16.51-18-25.88-4.81-8.91-8.58-18.35-12.85-27.53-1.67-3.59-3.42-7.16-5.42-10.57a.66.66,0,0,0-.06-.38c-6.11-13.42-3.84-28.86,4.57-40.73,1.14,1.47,2.56.94,2.3-.05s-.61-2.24-1-3.33a.89.89,0,0,0-1.44-.45c-.22.16-.45.31-.67.47a.89.89,0,0,0-.27.87c.06.26.12.5.19.72a.6.6,0,0,0-.14.12c-6.13,6.81-9.7,18.06-9.13,28.36A111.91,111.91,0,0,1,140,447.53c-.34-7.93-.39-15.86-.67-23.78-.23-6.75-.81-15.73-2.63-22.19-.48-10,7.47-17.81,12.94-25.59l.23.31c.94,1.22,3.68-1.44,1.24-4.23a1,1,0,0,0-1.64.35,2.51,2.51,0,0,1-.69,1.41c-3.68,5.49-11.59,13.47-13.6,21.31a66.12,66.12,0,0,1-.17-24.67c1.81-9.39,6.09-18.09,7.7-27.55a.67.67,0,0,0,0-.13,2.83,2.83,0,0,0,.65-.5c4.12-4.23-2.88-3.06-2.91-3a.84.84,0,0,0-.7,1.07,4.4,4.4,0,0,0,1.09,2.28,1.2,1.2,0,0,0-.06.23c-1.73,10.19-6.36,19.59-8,29.79-.84,5.13-.6,10.51-.3,15.68.09,1.63.22,3.31.44,5a12.16,12.16,0,0,0-6.56-5,1,1,0,0,0-.25,0,16.13,16.13,0,0,0-.06-1.63.86.86,0,0,0-1.54-.27,9.21,9.21,0,0,0-1,4.66.89.89,0,0,0,1.63.52,6,6,0,0,0,.51-1.08,1,1,0,0,0,.32-.2c6.54,2.18,8.5,10.38,9.71,16.36,1.48,7.33,1.73,14.89,1.88,22.34.22,10.55,0,21.91,1.62,32.76-5.59-6.9-11.87-13.86-14.89-22.21-3-8.19-.79-17.07-.06-25.45,1,0,1.82-.54,1.1-1.5-3.37-4.11-3.9-2.21-3.59-.53a2.38,2.38,0,0,0,.86,1.44c-1.64,8.57-2.74,18-.18,26.46,2.94,9.69,11.37,17.88,17.44,25.7a61.61,61.61,0,0,0,4.32,13.74,45,45,0,0,0-5.63-5.89,36.46,36.46,0,0,0-8.59-5.36c-3-1.4-7.2-2.63-9.38-5.29a10.3,10.3,0,0,0-.31-1.62.9.9,0,0,0-1.75.4Z" transform="translate(-109 -220.89)"/><path class="cls-3" d="M142.72,332.86c-1.3.26-2.15,1.71-2.52,2.85a6.18,6.18,0,0,0,.76,5.19,1,1,0,0,0,1.29.4,4.19,4.19,0,0,0,2.7-3.08,3.54,3.54,0,0,0,0-.77,11.07,11.07,0,0,0,.1-2.18c-.06-1.33-.8-2.73-2.33-2.42Z" transform="translate(-109 -220.89)"/><path class="cls-3" d="M154.41,368c-8.25,2.92-4.1,9-.69,6.47.94-.71,1.78-4.26,1.85-5.5a1,1,0,0,0-1.16-1Z" transform="translate(-109 -220.89)"/><path class="cls-3" d="M122.57,384.59a.94.94,0,0,0-.64-.22,5.74,5.74,0,0,0-3.52-1.52,1,1,0,0,0-1,1.17,9.4,9.4,0,0,0,.82,2.06,5.31,5.31,0,0,0,5.23,3.41c.51,0,1.09-.47,1-1.06a1.23,1.23,0,0,0,0-.89,7,7,0,0,0-1.89-2.94Z" transform="translate(-109 -220.89)"/><path class="cls-3" d="M159.49,437.25c-9.08,3.49-3.78,11.67-.19,5.85a11.46,11.46,0,0,0,1.6-5,1,1,0,0,0-1.41-.9Z" transform="translate(-109 -220.89)"/><path class="cls-3" d="M109.71,457.43a1,1,0,0,0-.63,1.37c1.35,3.3,5.69,7.4,9.35,4.91a.91.91,0,0,0,.38-1.21c-2-3.34-5.09-5.59-9.1-5.06Z" transform="translate(-109 -220.89)"/><path class="cls-3" d="M125.12,404.58c-1.38-2-3.85,2.57-2.84,5.48s4.59,4.37,4.68,0a9.65,9.65,0,0,0-1.84-5.47Z" transform="translate(-109 -220.89)"/><path class="cls-2" d="M171.57,517.25c0-.31.08-.62.15-.94a.94.94,0,0,0-1.66-.82c-2.88,3.61.81,5.68,1.15,4.06,0-.12,0-.23.05-.34,7.59,4.14,15,8,21.47,13.8q.83,1.72,1.62,3.44c5.09,11.13,9.22,22.78,15.69,33.14-6.71-5.63-13.17-11.68-20.6-16.32-.07-.47-2.22-2.35-3,1.4-.45,1,1,1.54,1.61.8l.52-.65c8.54,5.34,15.45,12.74,23.67,18.53a.75.75,0,0,0,.45.15q1.15,1.61,2.39,3.17c5.6,7,12.59,12.86,19.9,18.3a43.23,43.23,0,0,0-9.45.49c-3.34.42-6.66,1-10,1.61-1.36.24-2.72.48-4.09.7l-1,.11c-.8-1.27-2.54-1.75-2.47-.16.45,5.3,2,4,2.65,2.47a2.59,2.59,0,0,0,.14-.38l.82-.14c2.83-.44,5.63-1,8.45-1.48,5.57-1,12.88-2.72,18.5-.58,4.19,3,8.42,5.91,12.51,8.82.89.63,1.73-.71.92-1.38-7.31-6-15.35-11.13-22.75-17.07q-2-1.6-3.88-3.29a.83.83,0,0,0-.07-.32c-2.7-6.23-4.3-11.84-4.15-18.67.06-2.76,0-6.9-1.45-9.71,1.15-.84,1.52-2.42,0-2.36-5.3.42-4,1.94-2.49,2.64l.17.07a39.6,39.6,0,0,1,1.67,4.82c.54,2.91.1,6,.21,9a30.38,30.38,0,0,0,2.83,11.44,77,77,0,0,1-13.32-17.74c-3.93-7.23-7-14.85-10.25-22.4a.7.7,0,0,0,.17-.27c2.29-6.28,3.79-15.74.91-22.46a8,8,0,0,0,.6-3.29,1,1,0,0,0-1.39-.93c-.16.09-6.25,3-2.62,3.59,1.06.17.89.51,1.57,1.46a.72.72,0,0,0,.27.2c2.45,5.84.47,13.21-.5,19.37-3.44-8-7.14-15.78-12.22-22.93a57.11,57.11,0,0,0-4.88-6c.57-5.05-2.2-11-4.26-15.41-1.81-3.92-4.16-8.47-7.55-11.43.29-.56-.43-2.37-1.39-2.2-2.4,2.95-.21,5.49,1,4.52,2.72,2.77,4.59,6.6,6.22,10a51.85,51.85,0,0,1,4.28,12.83c-7.29-7.25-16.42-13-25.49-17.37-1.42-.69-4.5-2.08-6.69-1.73a2.62,2.62,0,0,0-2.16,1.67c-.5,1.25-.27,2.26,1.2,2.31s1.88-.7,2.3-2c.3,0,.58.1.78.15a24.86,24.86,0,0,1,6.54,2.83c3.87,2.1,7.49,4.65,11.26,6.91,11,6.61,18.43,16.68,24.25,27.74-5.53-5-12.58-8.21-19.16-11.79Z" transform="translate(-109 -220.89)"/><path class="cls-3" d="M201.82,595.81a1,1,0,0,0-.29,1.52,5.92,5.92,0,0,0,2.58,1.89c.07,0,.14,0,.21,0a6.3,6.3,0,0,0,4.17.61,1,1,0,0,0,.53-1.59c-1.84-1.95-4.47-3.84-7.19-2.46Z" transform="translate(-109 -220.89)"/><path class="cls-3" d="M216.22,547.46c-1.7-2.06-3.51,3,.36,7.47a1,1,0,0,0,1.68-.34,5.67,5.67,0,0,0-1.05-5.81,14.31,14.31,0,0,0-1-1.32Z" transform="translate(-109 -220.89)"/><path class="cls-3" d="M180.26,547.55a1,1,0,0,0-.94,1.4c1.77,3.18,3.95,5.42,7.46,5.9a1,1,0,0,0,1.06-.92c-.19-3.83-4.13-6.21-7.58-6.38Z" transform="translate(-109 -220.89)"/><path class="cls-3" d="M198.82,509.26c-2.1-5-5-1.85-4.51,2.34a8.61,8.61,0,0,0,2.06,4.59c1.86,2.15,4.2-3.53,2.45-6.92Z" transform="translate(-109 -220.89)"/><path class="cls-3" d="M162.91,477.74a.92.92,0,0,0-.36.69c0,1.6,2.09,7.25,4.54,6.1a1,1,0,0,0,1.16-.88c-.07-2.9-3.83-8.79-5.35-5.92Z" transform="translate(-109 -220.89)"/><path class="cls-3" d="M163.34,511.68c-2.5.85-3,4.55.89,6.36,10.58,4.9,5.76-8.62-.89-6.36Z" transform="translate(-109 -220.89)"/><path class="cls-3" d="M138.6,487.92a1.15,1.15,0,0,0-.51,1.54,9.71,9.71,0,0,0,2.88,2.93c2.4,1.13,7.63.49,4.7-3.09a6,6,0,0,0-7.07-1.37Z" transform="translate(-109 -220.89)"/><path class="cls-2" d="M476.3,372.71c-.2-1.63.37-1.33-.17-3,.13-1-.89-1.41-1.48-.48-3.48-3.47-9.5-4.79-13.36-7.52-9.6-6.8-14.59-17.43-19.17-27.92-.92-2.11-1.82-4.23-2.71-6.34a39.92,39.92,0,0,1,5.31,3,81.47,81.47,0,0,1,11.16,9.38,5.28,5.28,0,0,0-.15.79c-.7,3.57,1.45,1.43,2.38.81,1.74-1.16,1.85-4.27-.92-3a77.7,77.7,0,0,0-14.84-11.72l-3.63-.95c-2.79-6.66-5.57-13.32-8.86-19.76-4.65-9.11-10.89-17.29-17.06-25.4-.78-1-2.19.27-1.48,1.29,6.07,8.68,12.55,16.81,17.38,26.28,4.61,9,8.16,18.55,12.21,27.82,1.58,3.63,3.25,7.24,5.17,10.7a.64.64,0,0,0,.05.38c5.8,13.56,3.18,28.94-5.51,40.61-1.11-1.49-2.54-1-2.3,0s.56,2.25.9,3.35a.89.89,0,0,0,1.43.48c.22-.16.46-.3.68-.46a.89.89,0,0,0,.29-.86c-.05-.26-.11-.5-.18-.72a.9.9,0,0,0,.14-.12c6.29-6.67,10.11-17.83,9.78-28.14a112,112,0,0,1,3.06,25c.16,7.93,0,15.86.12,23.79.08,6.78.45,15.7,2.12,22.24.25,10-7.88,17.64-13.53,25.28l-.22-.31c-.91-1.25-3.71,1.35-1.34,4.2a1,1,0,0,0,1.65-.32,2.5,2.5,0,0,1,.71-1.39c3.8-5.41,11.9-13.2,14.1-21a66.13,66.13,0,0,1-.4,24.67c-2,9.35-6.51,17.94-8.33,27.36,0,0,0,.08,0,.12a2.82,2.82,0,0,0-.66.49c-4.22,4.13,2.8,3.12,2.84,3.09a.84.84,0,0,0,.73-1.05,4.39,4.39,0,0,0-1-2.3,1.13,1.13,0,0,0,.07-.22c2-10.14,6.81-19.43,8.72-29.6,1-5.11.85-10.49.66-15.66-.05-1.63-.15-3.32-.33-5a12.17,12.17,0,0,0,6.44,5.17.94.94,0,0,0,.25,0,16.11,16.11,0,0,0,0,1.64.86.86,0,0,0,1.54.31,9.27,9.27,0,0,0,1.13-4.63.9.9,0,0,0-1.62-.56,5.75,5.75,0,0,0-.54,1.07.88.88,0,0,0-.32.19c-6.49-2.33-8.26-10.57-9.33-16.59-1.31-7.36-1.38-14.92-1.37-22.38,0-10.56.52-21.91-.86-32.79,5.43,7,11.55,14.13,14.37,22.55,2.77,8.25.4,17.08-.53,25.44-1-.06-1.84.5-1.13,1.47,3.28,4.18,3.85,2.3,3.57.61a2.34,2.34,0,0,0-.83-1.46c1.84-8.54,3.16-17.93.79-26.45-2.71-9.76-11-18.14-16.84-26.1a62,62,0,0,0-4-13.84,44.5,44.5,0,0,0,5.49,6,36.52,36.52,0,0,0,8.46,5.55c2.94,1.47,7.13,2.79,9.26,5.51a10,10,0,0,0,.27,1.63.9.9,0,0,0,1.75-.36Z" transform="translate(-109 -220.89)"/><path class="cls-3" d="M449.12,500.8c1.3-.23,2.19-1.66,2.59-2.8a6.18,6.18,0,0,0-.64-5.21,1,1,0,0,0-1.29-.43,4.19,4.19,0,0,0-2.76,3,3.32,3.32,0,0,0,0,.77,11.11,11.11,0,0,0-.15,2.18c0,1.32.73,2.74,2.28,2.47Z" transform="translate(-109 -220.89)"/><path class="cls-3" d="M438.25,465.42c8.31-2.73,4.3-8.92.84-6.45-1,.68-1.88,4.21-2,5.45a1,1,0,0,0,1.14,1Z" transform="translate(-109 -220.89)"/><path class="cls-3" d="M470.46,449.55a.92.92,0,0,0,.63.23,5.73,5.73,0,0,0,3.49,1.6,1,1,0,0,0,1-1.14,9.56,9.56,0,0,0-.78-2.07,5.31,5.31,0,0,0-5.15-3.53c-.51,0-1.1.45-1,1a1.24,1.24,0,0,0,0,.89,7,7,0,0,0,1.82,3Z" transform="translate(-109 -220.89)"/><path class="cls-3" d="M434.77,396c9.15-3.27,4-11.57.32-5.84a11.4,11.4,0,0,0-1.71,4.92,1,1,0,0,0,1.39.93Z" transform="translate(-109 -220.89)"/><path class="cls-3" d="M485,377a1,1,0,0,0,.66-1.35c-1.27-3.33-5.52-7.53-9.24-5.12a.92.92,0,0,0-.41,1.2c1.92,3.38,5,5.71,9,5.27Z" transform="translate(-109 -220.89)"/><path class="cls-3" d="M468.38,429.51c1.34,2,3.91-2.48,3-5.41s-4.49-4.47-4.68-.1a9.68,9.68,0,0,0,1.71,5.51Z" transform="translate(-109 -220.89)"/><path class="cls-2" d="M238.4,590.13a1.08,1.08,0,0,0,.39-.16c6.2,5.21,12.71,9.78,20.61,12.13l.37.11c-4.63,1.26-10.87,4.19-13.35,6.46-1.5-.61-3.39.21-2.22,1.42,3.68,3.52,4.11,1.88,3.69.31a34.26,34.26,0,0,1,4.2-2.71c3.92-1.84,8.65-3.43,11-4.66,10.62,2.12,21.53.17,32.21-.9a115.7,115.7,0,0,1,20.59-.4c-9.6,1.44-18.48,6.74-26.27,12.58-2.57-1.65-2.87,1.45-1.3,2.83.84.73,2.7,3.13,2.47-.5a5.19,5.19,0,0,0-.05-.81A81.84,81.84,0,0,1,303.08,608c6.27-3.17,12.84-4.19,19.64-5.45a66.18,66.18,0,0,1,10,2.42c7.54,2.48,17,6.65,24.56,2.3.8-.46,0-1.83-.81-1.4-8.46,4.48-18.91-1.8-27.24-3.87a93.53,93.53,0,0,0-24.74-2.28.83.83,0,0,0-.39-.27c-5.1-1.78-10.57-2.66-15.52-4.83-4.45-1.83-8.6-5.32-11.31-7.7,1.2-1.5.34-4.18-1-2.85-.43.45-5.21,4.93-.36,3.69,6.82,7,16.9,10.32,23.47,12.15l-1.1.06c-12.17.69-23.92,3.42-36.09.84C253.6,599,246.6,593.94,240,588.45c.41-1.44-.38-3-1.51-1.94.32-.74-5.28,3.93-.11,3.62Z" transform="translate(-109 -220.89)"/><path class="cls-3" d="M281.38,617.74a6.29,6.29,0,0,0-1.81,3,1.12,1.12,0,0,0,.89,1.51c2.87.26,7.78-1.82,9.14-4.46.6-1.16-.5-2.19-2.07-2.38a6.58,6.58,0,0,0-6.15,2.36Zm-42.66-5.29a1,1,0,0,0,.78,1.32,6,6,0,0,0,2.43.13,2.42,2.42,0,0,0,.86,0c1.51-.23,2.73-1.71,3.59-2.85a1,1,0,0,0-.41-1.48,5.39,5.39,0,0,0-7.25,2.86Zm-6.38-27.31a11.89,11.89,0,0,0,3,3.35c1.59,1,4.26-.31,3.34-2-2.37-4.24-8.26-4-6.33-1.4Zm37.27-5a8.24,8.24,0,0,0,.2,1.27,5.93,5.93,0,0,0,5,5,1,1,0,0,0,1.06-.83c.25-3-1.88-5.56-4.91-6.5a1,1,0,0,0-1.33,1Z" transform="translate(-109 -220.89)"/><path class="cls-2" d="M240.22,230.6c-1.6.35-1.36-.25-3,.44-1,0-1.32,1-.35,1.52-3.14,3.78-3.91,9.89-6.29,14-1.72,3-5.06,8.14-9.64,11.63-7.84,6-18.9,10.69-28.83,17.72-8.66,6.12-15.75,12.87-20.55,17.25-.95.86,1.58,1.14,2.54.34,8.41-7.08,15.93-14.35,22.26-18.63,5.42-3.67,15.05-8.69,21-11.92,13-7,28.54-5.75,40.94,1.85-1.39,1.24-.77,2.61.2,2.29s2.19-.76,3.25-1.2a.88.88,0,0,0,.35-1.47c-.17-.2-.34-.43-.51-.64a.89.89,0,0,0-.89-.21c-.25.07-.49.15-.71.24a.76.76,0,0,0-.13-.13c-7.2-5.67-18.67-8.48-28.91-7.22a111.75,111.75,0,0,1,24.64-5.29c7.89-.87,15.79-1.45,23.69-2.25,6.7-.68,15.65-1.85,22-4.1,9.92-1.14,18.27,6.27,26.39,11.21l-.29.26c-1.16,1,1.68,3.57,4.31,1a1,1,0,0,0-.46-1.61,2.52,2.52,0,0,1-1.45-.59c-5.72-3.3-14.21-10.67-22.16-12.16A66,66,0,0,1,332.23,241c9.49,1.17,18.45,4.87,28,5.85h.13a2.91,2.91,0,0,0,.55.62c4.49,3.83,2.86-3.07,2.83-3.11a.84.84,0,0,0-1.12-.63,4.38,4.38,0,0,0-2.2,1.24l-.23,0c-10.28-1-20-5-30.26-6-5.18-.5-10.52.1-15.66.74-1.62.2-3.29.44-4.95.78a12.19,12.19,0,0,0,4.58-6.88,1.47,1.47,0,0,0,0-.25c.54,0,1.09-.08,1.63-.17a.86.86,0,0,0,.17-1.56,9.19,9.19,0,0,0-4.71-.71.89.89,0,0,0-.41,1.66,6.08,6.08,0,0,0,1.11.44,1,1,0,0,0,.22.31c-1.74,6.67-9.79,9.17-15.68,10.78-7.21,2-14.74,2.71-22.16,3.36-10.52.92-21.87,1.44-32.58,3.79,6.52-6,13-12.77,21.17-16.34,8-3.5,17-1.92,25.39-1.75,0,1,.66,1.79,1.56,1,3.88-3.64,1.95-4,.29-3.61a2.35,2.35,0,0,0-1.38,1c-8.66-1.06-18.14-1.54-26.41,1.58-9.47,3.58-17.09,12.54-24.49,19.11a61.86,61.86,0,0,0-13.42,5.22,44.75,44.75,0,0,0,5.5-6,36.58,36.58,0,0,0,4.77-8.93c1.2-3.06,2.14-7.36,4.65-9.71a10.21,10.21,0,0,0,1.6-.41.9.9,0,0,0-.51-1.71Z" transform="translate(-109 -220.89)"/><path class="cls-3" d="M370.24,246.2c-.35-1.28-1.85-2-3-2.33a6.18,6.18,0,0,0-5.13,1.1,1,1,0,0,0-.32,1.32,4.2,4.2,0,0,0,3.25,2.48,3.64,3.64,0,0,0,.77,0,11.2,11.2,0,0,0,2.19,0c1.32-.15,2.67-1,2.25-2.49Z" transform="translate(-109 -220.89)"/><path class="cls-3" d="M336,260.2c-3.46-8-9.27-3.49-6.5-.26.77.89,4.37,1.49,5.61,1.48a1,1,0,0,0,.89-1.22Z" transform="translate(-109 -220.89)"/><path class="cls-3" d="M317.28,229.53a.92.92,0,0,0,.17-.65,5.71,5.71,0,0,0,1.28-3.62,1,1,0,0,0-1.23-.89,9.37,9.37,0,0,0-2,1,5.3,5.3,0,0,0-3,5.44c.07.5.54,1.06,1.12.88a1.21,1.21,0,0,0,.89,0,7,7,0,0,0,2.81-2.08Z" transform="translate(-109 -220.89)"/><path class="cls-3" d="M267.19,269.87c-4.08-8.83-11.89-3-5.85.2a11.42,11.42,0,0,0,5,1.27,1,1,0,0,0,.8-1.46Z" transform="translate(-109 -220.89)"/><path class="cls-3" d="M243.75,221.54a1,1,0,0,0-1.41-.54c-3.21,1.57-7,6.17-4.27,9.66a.92.92,0,0,0,1.24.3c3.2-2.21,5.24-5.45,4.45-9.42Z" transform="translate(-109 -220.89)"/><path class="cls-3" d="M297.51,233.4c1.87-1.51-2.82-3.67-5.65-2.47s-4.05,4.87.32,4.67a9.68,9.68,0,0,0,5.34-2.2Z" transform="translate(-109 -220.89)"/><path class="cls-2" d="M436,306.43a1,1,0,0,0-.43,0c-3.36-7.37-7.28-14.3-13.39-19.81l-.29-.26c4.72.85,11.62.89,14.83-.09,1.09,1.19,3.15,1.26,2.61-.33-1.81-4.75-2.9-3.46-3.2-1.86a34.58,34.58,0,0,1-5,.64c-4.33,0-9.28-.62-12-.53-8.68-6.48-19.36-9.41-29.47-13A115.82,115.82,0,0,1,371,262.64c9.28,2.82,19.59,1.85,29.13-.07,1.62,2.59,3.22-.08,2.38-2-.44-1-1.09-4-2.44-.61a5.22,5.22,0,0,0-.3.75,82.18,82.18,0,0,1-14.47,1.81c-7,.17-13.39-1.74-20.08-3.52a66.55,66.55,0,0,1-8-6.49c-5.74-5.48-12.49-13.31-21.19-12.63-.92.07-.79,1.65.12,1.61,9.57-.41,16.3,9.76,22.94,15.2a93.49,93.49,0,0,0,21.36,12.69.82.82,0,0,0,.24.41c3.84,3.8,8.41,6.94,11.95,11,3.23,3.57,5.47,8.5,6.9,11.81-1.73.84-2.1,3.63-.27,3,.58-.22,6.82-2.22,1.91-3.18-3.16-9.22-10.83-16.58-16-21.06l1,.42c11.29,4.61,23.07,7.2,32.95,14.75,7,5.32,11.1,12.89,14.68,20.68-1,1.12-1,2.9.53,2.4-.6.53,6.46-1.28,1.66-3.22Z" transform="translate(-109 -220.89)"/><path class="cls-3" d="M409.05,263a6.3,6.3,0,0,0,2.91-1.89,1.12,1.12,0,0,0-.16-1.75c-2.49-1.47-7.8-1.7-10.17.1-1,.79-.48,2.2.85,3a6.59,6.59,0,0,0,6.57.51Zm36.25,23.11a1,1,0,0,0-.14-1.52,6,6,0,0,0-2.14-1.16,2.47,2.47,0,0,0-.76-.39c-1.46-.45-3.21.37-4.46,1a1,1,0,0,0-.27,1.51,5.39,5.39,0,0,0,7.77.53Zm-6,27.4a11.87,11.87,0,0,0-1.26-4.31c-1-1.57-4-1.55-3.86.33.32,4.84,5.72,7.2,5.12,4ZM403.5,302.08a8.28,8.28,0,0,0,.36-1.23,5.92,5.92,0,0,0-2.34-6.68,1,1,0,0,0-1.31.3c-1.52,2.61-.69,5.83,1.64,8a1,1,0,0,0,1.64-.36Z" transform="translate(-109 -220.89)"/><path class="cls-3" d="M463.32,536a6.3,6.3,0,0,0,2.71,2.17,1.13,1.13,0,0,0,1.61-.7c.61-2.82-.83-7.94-3.28-9.62-1.08-.75-2.24.22-2.62,1.75a6.6,6.6,0,0,0,1.57,6.4Z" transform="translate(-109 -220.89)"/><path class="cls-2" d="M438.49,569.41c1.21-1.1,1.3-.47,2.39-1.9.92-.5.63-1.54-.47-1.49.81-4.85-1.6-10.51-1.6-15.24,0-11.77,5.77-22,11.67-31.79a32.31,32.31,0,0,0,3.3-7.55A80.66,80.66,0,0,0,461,527.36c-2,2.35,1.08,3,2.65,1.64.83-.74,3.45-2.29-.19-2.51a5,5,0,0,0-.8,0,81.7,81.7,0,0,1-6.25-13.17,40,40,0,0,1-1.61-6c3.4-19.1-6.16-42-.06-61.55.38-1.22-1.49-1.63-1.91-.46-8.68,24.3,8.3,52.21-4.83,74-2,3.39-4,6.85-5.73,10.41a.66.66,0,0,0-.28.26c-7.7,12.58-21.76,19.34-36.3,19,.57-1.77-.65-2.65-1.33-1.87s-1.51,1.76-2.21,2.67a.89.89,0,0,0,.44,1.44l.76.29a.89.89,0,0,0,.87-.26c.18-.19.34-.38.49-.56l.18,0c9.07,1.27,20.4-2.08,28.61-8.32a112.1,112.1,0,0,1-18.63,17c-6.38,4.72-12.92,9.2-19.34,13.87-5.54,4-12.48,9.43-16.91,14.6-8,6-18.94,3.79-28.45,3.61l.12-.37c.49-1.46-3.25-2.24-4.2,1.34a1,1,0,0,0,1.21,1.16,2.54,2.54,0,0,1,1.55-.22c6.61,0,17.65,2.06,25.28-.66a66.14,66.14,0,0,1-20.35,14c-8.79,3.76-18.4,5.08-27.14,9l-.11.06a2.92,2.92,0,0,0-.78-.25c-5.81-1.05-.92,4.09-.88,4.11a.84.84,0,0,0,1.28,0,4.41,4.41,0,0,0,1.28-2.18l.22-.07c9.41-4.27,19.79-5.7,29.18-10,4.72-2.18,9-5.38,13.16-8.53,1.3-1,2.62-2,3.89-3.16a12.15,12.15,0,0,0-.49,8.25,1.16,1.16,0,0,0,.1.23c-.45.31-.9.61-1.32,1a.86.86,0,0,0,.64,1.43,9.24,9.24,0,0,0,4.43-1.76.89.89,0,0,0-.48-1.65,5.78,5.78,0,0,0-1.18.18.84.84,0,0,0-.35-.16c-1.85-6.64,3.84-12.85,8.13-17.21,5.25-5.33,11.37-9.76,17.46-14.07,8.62-6.09,18.17-12.26,26.24-19.68-2.59,8.5-4.84,17.6-10.06,24.77s-13.7,10.21-21,14.29c-.55-.87-1.47-1.21-1.85-.07-1.51,5.1.36,4.47,1.57,3.27a2.35,2.35,0,0,0,.71-1.52c8-3.45,16.45-7.8,22-14.67,6.38-7.86,8.45-19.44,11.53-28.84a61.72,61.72,0,0,0,9-11.27,44.66,44.66,0,0,0-1.73,8,36.48,36.48,0,0,0,.37,10.11c.51,3.25,1.85,7.43.87,10.74a9.81,9.81,0,0,0-1.17,1.17.89.89,0,0,0,1.3,1.22Z" transform="translate(-109 -220.89)"/><path class="cls-3" d="M318.31,621.4c.95.93,2.62.82,3.78.49a6.18,6.18,0,0,0,3.88-3.53,1,1,0,0,0-.39-1.3,4.19,4.19,0,0,0-4.06-.5,3.32,3.32,0,0,0-.64.42,11.07,11.07,0,0,0-1.87,1.14c-1.07.79-1.81,2.19-.7,3.29Z" transform="translate(-109 -220.89)"/><path class="cls-3" d="M340.87,592.05c7,5.2,9.77-1.65,5.75-3.05-1.11-.38-4.53.91-5.59,1.54a1,1,0,0,0-.15,1.51Z" transform="translate(-109 -220.89)"/><path class="cls-3" d="M372.46,609.14a.92.92,0,0,0,.17.65,5.75,5.75,0,0,0,.71,3.77,1,1,0,0,0,1.51.15,9.47,9.47,0,0,0,1.24-1.83,5.31,5.31,0,0,0-.11-6.24,1,1,0,0,0-1.41-.2,1.2,1.2,0,0,0-.75.48,7,7,0,0,0-1.38,3.22Z" transform="translate(-109 -220.89)"/><path class="cls-3" d="M395.42,549.06c8,5.57,11.78-3.41,5-3.12a11.45,11.45,0,0,0-5,1.45,1,1,0,0,0,0,1.67Z" transform="translate(-109 -220.89)"/><path class="cls-3" d="M440,579a1,1,0,0,0,1.48-.24c2-3,2.95-8.86-1.17-10.5a.91.91,0,0,0-1.22.37c-1.65,3.52-1.79,7.35.9,10.37Z" transform="translate(-109 -220.89)"/><path class="cls-3" d="M387.59,595.84c-.86,2.25,4.28,1.76,6.12-.71s1-6.25-2.62-3.87a9.67,9.67,0,0,0-3.5,4.59Z" transform="translate(-109 -220.89)"/><path class="cls-3" d="M465,342.91a6.28,6.28,0,0,1,1.41,3.17,1.12,1.12,0,0,1-1.08,1.38c-2.89-.12-7.48-2.81-8.49-5.61-.44-1.23.79-2.11,2.37-2.09a6.59,6.59,0,0,1,5.79,3.14Z" transform="translate(-109 -220.89)"/><path class="cls-2" d="M150.67,430.44c-.12-.54-.94-.67-1,0a11.56,11.56,0,0,1-2,5.65,42,42,0,0,1-3.7,4.14,32.9,32.9,0,0,1,.22-6.52,28.61,28.61,0,0,0,.49-6.31h0c0-.41-.09-.82-.16-1.22a7.44,7.44,0,0,0,7-4.71c.17-.52-.53-1.11-.9-.57h0c-1.58,2.4-3.28,4-6.23,4.43a28.44,28.44,0,0,0-.94-3.16,9.57,9.57,0,0,0,3.1-3.3,7.16,7.16,0,0,0,7-2.86c.31-.45-.22-1.19-.7-.77h0c-1.75,1.51-3.55,2.82-5.86,2.79a25.13,25.13,0,0,0,2-7,.59.59,0,0,0-1.17-.2h0c-.8,4-1.68,7.71-4.65,10.53a27.72,27.72,0,0,1-1.86-6.77.59.59,0,0,0-1.18.1c-.08,4.48,2.75,8.46,3.39,12.84,0,.23.06.46.08.69-2.13-.1-3.85-.55-5-2.59-.21-.37-.81-.05-.66.34a5.53,5.53,0,0,0,5.73,3.39c0,4-1.51,7.8-.47,11.83-2.18,2.45-4.07,5.34-3.66,8.75.06.45.76.52.82,0,.56-4.5,3.14-7.33,6.14-10.49.32-.33.65-.69,1-1.06a.38.38,0,0,0,.2,0,17.65,17.65,0,0,0,7.47-3.09.51.51,0,0,0-.58-.84,39.84,39.84,0,0,1-6.09,2.73c1.56-2,2.85-4.31,2.32-6.73Z" transform="translate(-109 -220.89)"/><path class="cls-4" d="M141.74,409.23a4.47,4.47,0,0,0-3.09-1,4.08,4.08,0,0,0-2.87,1.5,4.22,4.22,0,0,0,.52,6,4.48,4.48,0,0,0,3.09,1,4.1,4.1,0,0,0,2.87-1.5,4.23,4.23,0,0,0-.52-6Z" transform="translate(-109 -220.89)"/><path class="cls-4" d="M152.38,403.87a4.55,4.55,0,0,0-3.14-1,4.14,4.14,0,0,0-2.91,1.52,4.3,4.3,0,0,0,.53,6.06,4.56,4.56,0,0,0,3.14,1,4.14,4.14,0,0,0,2.92-1.52,4.29,4.29,0,0,0-.53-6.05Z" transform="translate(-109 -220.89)"/><path class="cls-4" d="M159.27,412.6a4.32,4.32,0,1,0-8.09,3h0l0,.13h0c0,.09.07.17.11.26a4.21,4.21,0,0,0,7.69.07l0-.07a4.3,4.3,0,0,0,.41-1.22,4.39,4.39,0,0,0-.19-2.19Z" transform="translate(-109 -220.89)"/><path class="cls-4" d="M152.17,418.1c-5.42,0-4.64,8.35.73,8.35s4.64-8.35-.73-8.35Z" transform="translate(-109 -220.89)"/><path class="cls-4" d="M140.37,422.26a4.41,4.41,0,0,0-3-1c-2.28,0-4,2.4-3.79,4.52a4.18,4.18,0,0,0,1.47,2.83,4.42,4.42,0,0,0,3,1c2.28,0,4-2.4,3.79-4.52a4.18,4.18,0,0,0-1.47-2.83Z" transform="translate(-109 -220.89)"/><path class="cls-4" d="M151.1,425.38c-5.59,0-4.79,8.63.76,8.63s4.79-8.63-.76-8.63Z" transform="translate(-109 -220.89)"/><path class="cls-4" d="M155.34,430.89c-5.67,0-4.86,8.75.76,8.75s4.86-8.75-.76-8.75Z" transform="translate(-109 -220.89)"/><path class="cls-2" d="M442.08,428.06c-.54.57-1.3-.23-1-.83,2.27-4.18,6.78-6.85,9.75-10.51a15.08,15.08,0,0,0,2.59-4.84,2,2,0,0,1-1.45.65h0c-1.92,0-3.6-.53-5.59-.22a18.91,18.91,0,0,0-6.61,2.6c.86,4.44-1.64,9.91-5.64,11.91h0a.55.55,0,0,1-.62-.9c3.23-3.13,4.69-6.08,5-10.25-.87.5-1.75,1-2.68,1.48a.7.7,0,0,1-.24.07c-1,.72-1.94,1.45-2.9,2.22-.42.34-1.11-.18-.75-.64a15.74,15.74,0,0,1,5.18-4.31,23.85,23.85,0,0,1,4.85-2.55,28.73,28.73,0,0,0-2.75-1.91,4.24,4.24,0,0,0-4.2-.29.6.6,0,0,1-.76-.86c2.06-3.29,7.15.51,8.82,2.32a.58.58,0,0,1,.15.28l.15,0a24.23,24.23,0,0,1,5.14-.94c1.81-.19,3,1,4.84,0a.48.48,0,0,1,.48,0,42.43,42.43,0,0,0,.82-10.39c0-.94,1.38-.8,1.43.1.26,5.09,0,10-2.23,14.62h0a45.11,45.11,0,0,0-.38,11.87c.24,3.4.32,7-1.11,10.16a.67.67,0,0,1-1.27-.43h0c1.1-4.2,1-8,.68-12.32a32.06,32.06,0,0,1,0-5.92,40.9,40.9,0,0,1-4.34,4.69.62.62,0,0,1,.37.5c.58,3.31.29,7.09-1.94,9.77h0c-.39.46-1.33.15-1-.5a16.4,16.4,0,0,0,1.62-8.83c-1.52,1.42-3,2.8-4.36,4.19Z" transform="translate(-109 -220.89)"/><path class="cls-4" d="M449.78,439.45c-5.27-2.85-.11-10.58,5.12-7.75s.12,10.58-5.12,7.75Z" transform="translate(-109 -220.89)"/><path class="cls-4" d="M447.42,439.41l-.1.11a4.48,4.48,0,0,1-5.48.41,4.61,4.61,0,0,1-1.78-5.19c0-.05,0-.11,0-.16a4.39,4.39,0,0,1,2.24-2.59,4.54,4.54,0,0,1,6.5,3.13,4.71,4.71,0,0,1-1.42,4.29Z" transform="translate(-109 -220.89)"/><path class="cls-4" d="M437.2,435.61c-5.31-2.87-.11-10.66,5.16-7.81s.12,10.66-5.16,7.81Z" transform="translate(-109 -220.89)"/><path class="cls-4" d="M432.75,433.51a5.05,5.05,0,0,1-3.57-.69c-2.28-1.23-2.69-4.56-1.35-6.58a4.77,4.77,0,0,1,3-2,5,5,0,0,1,3.57.69c2.28,1.23,2.68,4.57,1.35,6.58a4.79,4.79,0,0,1-3,2Z" transform="translate(-109 -220.89)"/><path class="cls-4" d="M426.64,424.68c-5.23-2.83-.12-10.5,5.07-7.69s.12,10.5-5.07,7.69Z" transform="translate(-109 -220.89)"/><path class="cls-4" d="M431.35,412.59c-5.23-2.83-.11-10.5,5.08-7.69s.11,10.5-5.08,7.69Z" transform="translate(-109 -220.89)"/><path class="cls-2" d="M308,580.17a24.61,24.61,0,0,1,5.18,4.41,8.61,8.61,0,0,1-4.74-.38c-.57-.17-2-.93-2.64-.51a.36.36,0,0,0,.4.59c-.24.16-.07.13.19.29a5.21,5.21,0,0,0,.86.41,19.11,19.11,0,0,0,2.61.86,5.77,5.77,0,0,0,4.12-.21,48.23,48.23,0,0,1,3.41,6.6l.24.5a18,18,0,0,1-4.13.53,10,10,0,0,0-3.52-4.58c-.52-.33-.9.45-.54.83h0a22,22,0,0,1,3,3.7l-.27,0c-1.82-.21-3.22-1.16-4.89-1.71-.32-.11-.52.32-.37.56.91,1.46,2.84,2.24,4.92,2.51-.17.36-.32.73-.53,1.08a4.46,4.46,0,0,1-1.44,1.48c-.62.4,0,1.28.63.94a5.21,5.21,0,0,0,2.54-3.4,11.41,11.41,0,0,0,5.07-.88c1.93,3.76,4.38,7.13,8.35,9,.64.31,1.06-.62.47-1-5-3.06-7.22-7.67-9.67-12.8-.46-1-1-2-1.54-3a4.78,4.78,0,0,0,2.24-2.49c1.79.38,4.15.54,5.2-1.19.31-.51-.38-1-.82-.71h0a4.78,4.78,0,0,1-2.17.88,11,11,0,0,1-1.86,0,8.22,8.22,0,0,0,.08-4c-.16-.66-1.11-.39-1.11.22h0c0,2.52-.18,4.76-2.18,6.26-1.62-2.53-3.72-4.8-6.53-5.75-.53-.18-1.12.51-.58.9Z" transform="translate(-109 -220.89)"/><path class="cls-4" d="M299.8,588.16a4.79,4.79,0,0,0-1.1,3.31,4.67,4.67,0,0,0,2.62,3.87,4.8,4.8,0,0,0,6.16-2.06c.05-.09.12-.17.17-.27a4.42,4.42,0,0,0-.33-4.42,5.05,5.05,0,0,0-3.06-2,4.6,4.6,0,0,0-4.46,1.62Z" transform="translate(-109 -220.89)"/><path class="cls-4" d="M306.61,596.35a4.88,4.88,0,0,0-1.94,2.94,4.44,4.44,0,0,0,.71,3.45,4.6,4.6,0,0,0,6.39,1.23A4.85,4.85,0,0,0,313.7,601a4.44,4.44,0,0,0-.71-3.45,4.6,4.6,0,0,0-6.39-1.23Z" transform="translate(-109 -220.89)"/><path class="cls-4" d="M298.58,581.67c-1.49,5.22,6.78,6.77,8.25,1.59s-6.78-6.77-8.25-1.59Z" transform="translate(-109 -220.89)"/><path class="cls-4" d="M302.73,576.1c-1.55,5.43,7.05,7,8.58,1.65s-7.05-7-8.58-1.65Z" transform="translate(-109 -220.89)"/><path class="cls-4" d="M313.75,573.64c-1.62,5.67,7.36,7.34,9,1.72s-7.36-7.35-9-1.72Z" transform="translate(-109 -220.89)"/><path class="cls-4" d="M323.15,578.49a4.6,4.6,0,0,0-1.82,2.76c-.64,2.27,1.27,4.65,3.43,5.06a4.34,4.34,0,0,0,3.24-.67,4.57,4.57,0,0,0,1.82-2.76c.65-2.27-1.27-4.65-3.43-5.06a4.34,4.34,0,0,0-3.24.67Z" transform="translate(-109 -220.89)"/><path class="cls-4" d="M305,586.52c-1.49,5.22,6.78,6.77,8.25,1.59s-6.78-6.77-8.25-1.59Z" transform="translate(-109 -220.89)"/><path class="cls-2" d="M280.27,250.25c-.21-2.12,0-3.89,1.83-5.35.33-.26-.07-.81-.43-.6a5.53,5.53,0,0,0-2.52,6.16c-3.91.59-7.93-.35-11.77,1.26-2.74-1.8-5.88-3.25-9.19-2.35a.42.42,0,0,0,.09.82c4.53-.1,7.7,2,11.27,4.54l1.19.82a.4.4,0,0,0,0,.2,17.68,17.68,0,0,0,4.15,6.94.51.51,0,0,0,.74-.69,40.38,40.38,0,0,1-3.58-5.62c2.17,1.26,4.68,2.19,7,1.32h0c.52-.2.54-1-.11-1a11.62,11.62,0,0,1-5.88-1.17,42.1,42.1,0,0,1-4.63-3.06,33,33,0,0,1,6.49-.73,28.61,28.61,0,0,0,6.31-.44h0c.4-.09.8-.21,1.19-.33a7.44,7.44,0,0,0,5.67,6.2c.54.09,1-.69.43-1h0c-2.61-1.21-4.43-2.67-5.3-5.52a28.4,28.4,0,0,0,3-1.39,9.59,9.59,0,0,0,3.72,2.58,7.16,7.16,0,0,0,3.85,6.52c.5.24,1.14-.39.66-.81h0c-1.75-1.51-3.31-3.1-3.61-5.39a25.14,25.14,0,0,0,7.24.92.59.59,0,0,0,0-1.18h0c-4.08-.21-7.87-.54-11.1-3.07a27.74,27.74,0,0,1,6.43-2.83.59.59,0,0,0-.28-1.15c-4.44.57-8,4-12.2,5.22l-.67.18Z" transform="translate(-109 -220.89)"/><path class="cls-4" d="M298.75,245.75a4.45,4.45,0,0,0,.51-3.19,4.08,4.08,0,0,0-1.9-2.62,4.23,4.23,0,0,0-5.82,1.38,4.48,4.48,0,0,0-.51,3.19,4.09,4.09,0,0,0,1.9,2.62,4.22,4.22,0,0,0,5.82-1.38Z" transform="translate(-109 -220.89)"/><path class="cls-4" d="M305.6,255.5a4.54,4.54,0,0,0,.52-3.25,4.15,4.15,0,0,0-1.93-2.66,4.3,4.3,0,0,0-5.91,1.41,4.55,4.55,0,0,0-.52,3.25,4.15,4.15,0,0,0,1.93,2.66,4.3,4.3,0,0,0,5.91-1.41Z" transform="translate(-109 -220.89)"/><path class="cls-4" d="M298,263.58A4.32,4.32,0,1,0,293.8,256h0l-.12.07h0l-.23.15a4.26,4.26,0,0,0-2,3.47,4.22,4.22,0,0,0,3,4.14h.07a4.26,4.26,0,0,0,3.4-.28Z" transform="translate(-109 -220.89)"/><path class="cls-4" d="M291.5,257.37c-.79-5.36-8.94-3.37-8.16,1.94s8.94,3.37,8.16-1.94Z" transform="translate(-109 -220.89)"/><path class="cls-4" d="M285.66,246.31a4.41,4.41,0,0,0,.51-3.15c-.33-2.25-3-3.58-5-3.09a4.2,4.2,0,0,0-2.59,1.87,4.44,4.44,0,0,0-.51,3.15c.33,2.25,3,3.58,5,3.09a4.18,4.18,0,0,0,2.59-1.87Z" transform="translate(-109 -220.89)"/><path class="cls-4" d="M284.13,257.37c-.82-5.53-9.24-3.48-8.43,2s9.24,3.48,8.43-2Z" transform="translate(-109 -220.89)"/><path class="cls-4" d="M279.3,262.36c-.83-5.61-9.36-3.53-8.54,2s9.36,3.53,8.54-2Z" transform="translate(-109 -220.89)"/></svg>